{
  "asset": {
    "version": "2.0",
    "generator": "FlowEngine gen_models.py"
  },
  "scene": 0,
  "scenes": [
    {
      "nodes": [
        0,
        1,
        2,
        3,
        4,
        5,
        6,
        7,
        8,
        9,
        10,
        11,
        12,
        13,
        14,
        15,
        16,
        17,
        18,
        19,
        20,
        21,
        22,
        23,
        24,
        25,
        26,
        27
      ]
    }
  ],
  "nodes": [
    {
      "name": "body",
      "mesh": 0
    },
    {
      "name": "cabin",
      "mesh": 1
    },
    {
      "name": "hood",
      "mesh": 2
    },
    {
      "name": "trunklid",
      "mesh": 3
    },
    {
      "name": "door_FL",
      "mesh": 4
    },
    {
      "name": "door_FR",
      "mesh": 5
    },
    {
      "name": "door_RL",
      "mesh": 6
    },
    {
      "name": "door_RR",
      "mesh": 7
    },
    {
      "name": "chargeport_cover",
      "mesh": 8
    },
    {
      "name": "wiper_L",
      "mesh": 9
    },
    {
      "name": "wiper_R",
      "mesh": 10
    },
    {
      "name": "grille",
      "mesh": 11
    },
    {
      "name": "bumper_front",
      "mesh": 12
    },
    {
      "name": "bumper_rear",
      "mesh": 13
    },
    {
      "name": "windshield",
      "mesh": 14
    },
    {
      "name": "rear_window",
      "mesh": 15
    },
    {
      "name": "side_window_L",
      "mesh": 16
    },
    {
      "name": "side_window_R",
      "mesh": 17
    },
    {
      "name": "headlight_L",
      "mesh": 18
    },
    {
      "name": "headlight_R",
      "mesh": 19
    },
    {
      "name": "brakelight_L",
      "mesh": 20
    },
    {
      "name": "brakelight_R",
      "mesh": 21
    },
    {
      "name": "turnsignal_FL",
      "mesh": 22
    },
    {
      "name": "turnsignal_FR",
      "mesh": 23
    },
    {
      "name": "turnsignal_RL",
      "mesh": 24
    },
    {
      "name": "turnsignal_RR",
      "mesh": 25
    },
    {
      "name": "axle_front",
      "translation": [
        1.35,
        0.33,
        0.0
      ],
      "children": [
        28,
        29
      ]
    },
    {
      "name": "axle_rear",
      "translation": [
        -1.35,
        0.33,
        0.0
      ],
      "children": [
        30,
        31
      ]
    },
    {
      "name": "wheel_FL",
      "translation": [
        0.0,
        0.0,
        -0.85
      ],
      "mesh": 26
    },
    {
      "name": "wheel_FR",
      "translation": [
        0.0,
        0.0,
        0.85
      ],
      "mesh": 27
    },
    {
      "name": "wheel_RL",
      "translation": [
        0.0,
        0.0,
        -0.85
      ],
      "mesh": 28
    },
    {
      "name": "wheel_RR",
      "translation": [
        0.0,
        0.0,
        0.85
      ],
      "mesh": 29
    }
  ],
  "meshes": [
    {
      "primitives": [
        {
          "attributes": {
            "POSITION": 0,
            "NORMAL": 1
          },
          "indices": 2,
          "material": 0
        }
      ],
      "name": "body"
    },
    {
      "primitives": [
        {
          "attributes": {
            "POSITION": 3,
            "NORMAL": 4
          },
          "indices": 5,
          "material": 0
        }
      ],
      "name": "cabin"
    },
    {
      "primitives": [
        {
          "attributes": {
            "POSITION": 6,
            "NORMAL": 7
          },
          "indices": 8,
          "material": 0
        }
      ],
      "name": "hood"
    },
    {
      "primitives": [
        {
          "attributes": {
            "POSITION": 9,
            "NORMAL": 10
          },
          "indices": 11,
          "material": 0
        }
      ],
      "name": "trunklid"
    },
    {
      "primitives": [
        {
          "attributes": {
            "POSITION": 12,
            "NORMAL": 13
          },
          "indices": 14,
          "material": 0
        }
      ],
      "name": "door_FL"
    },
    {
      "primitives": [
        {
          "attributes": {
            "POSITION": 15,
            "NORMAL": 16
          },
          "indices": 17,
          "material": 0
        }
      ],
      "name": "door_FR"
    },
    {
      "primitives": [
        {
          "attributes": {
            "POSITION": 18,
            "NORMAL": 19
          },
          "indices": 20,
          "material": 0
        }
      ],
      "name": "door_RL"
    },
    {
      "primitives": [
        {
          "attributes": {
            "POSITION": 21,
            "NORMAL": 22
          },
          "indices": 23,
          "material": 0
        }
      ],
      "name": "door_RR"
    },
    {
      "primitives": [
        {
          "attributes": {
            "POSITION": 24,
            "NORMAL": 25
          },
          "indices": 26,
          "material": 0
        }
      ],
      "name": "chargeport_cover"
    },
    {
      "primitives": [
        {
          "attributes": {
            "POSITION": 27,
            "NORMAL": 28
          },
          "indices": 29,
          "material": 0
        }
      ],
      "name": "wiper_L"
    },
    {
      "primitives": [
        {
          "attributes": {
            "POSITION": 30,
            "NORMAL": 31
          },
          "indices": 32,
          "material": 0
        }
      ],
      "name": "wiper_R"
    },
    {
      "primitives": [
        {
          "attributes": {
            "POSITION": 33,
            "NORMAL": 34
          },
          "indices": 35,
          "material": 2
        }
      ],
      "name": "grille"
    },
    {
      "primitives": [
        {
          "attributes": {
            "POSITION": 36,
            "NORMAL": 37
          },
          "indices": 38,
          "material": 2
        }
      ],
      "name": "bumper_front"
    },
    {
      "primitives": [
        {
          "attributes": {
            "POSITION": 39,
            "NORMAL": 40
          },
          "indices": 41,
          "material": 2
        }
      ],
      "name": "bumper_rear"
    },
    {
      "primitives": [
        {
          "attributes": {
            "POSITION": 42,
            "NORMAL": 43
          },
          "indices": 44,
          "material": 1
        }
      ],
      "name": "windshield"
    },
    {
      "primitives": [
        {
          "attributes": {
            "POSITION": 45,
            "NORMAL": 46
          },
          "indices": 47,
          "material": 1
        }
      ],
      "name": "rear_window"
    },
    {
      "primitives": [
        {
          "attributes": {
            "POSITION": 48,
            "NORMAL": 49
          },
          "indices": 50,
          "material": 1
        }
      ],
      "name": "side_window_L"
    },
    {
      "primitives": [
        {
          "attributes": {
            "POSITION": 51,
            "NORMAL": 52
          },
          "indices": 53,
          "material": 1
        }
      ],
      "name": "side_window_R"
    },
    {
      "primitives": [
        {
          "attributes": {
            "POSITION": 54,
            "NORMAL": 55
          },
          "indices": 56,
          "material": 3
        }
      ],
      "name": "headlight_L"
    },
    {
      "primitives": [
        {
          "attributes": {
            "POSITION": 57,
            "NORMAL": 58
          },
          "indices": 59,
          "material": 3
        }
      ],
      "name": "headlight_R"
    },
    {
      "primitives": [
        {
          "attributes": {
            "POSITION": 60,
            "NORMAL": 61
          },
          "indices": 62,
          "material": 4
        }
      ],
      "name": "brakelight_L"
    },
    {
      "primitives": [
        {
          "attributes": {
            "POSITION": 63,
            "NORMAL": 64
          },
          "indices": 65,
          "material": 4
        }
      ],
      "name": "brakelight_R"
    },
    {
      "primitives": [
        {
          "attributes": {
            "POSITION": 66,
            "NORMAL": 67
          },
          "indices": 68,
          "material": 5
        }
      ],
      "name": "turnsignal_FL"
    },
    {
      "primitives": [
        {
          "attributes": {
            "POSITION": 69,
            "NORMAL": 70
          },
          "indices": 71,
          "material": 5
        }
      ],
      "name": "turnsignal_FR"
    },
    {
      "primitives": [
        {
          "attributes": {
            "POSITION": 72,
            "NORMAL": 73
          },
          "indices": 74,
          "material": 5
        }
      ],
      "name": "turnsignal_RL"
    },
    {
      "primitives": [
        {
          "attributes": {
            "POSITION": 75,
            "NORMAL": 76
          },
          "indices": 77,
          "material": 5
        }
      ],
      "name": "turnsignal_RR"
    },
    {
      "primitives": [
        {
          "attributes": {
            "POSITION": 78,
            "NORMAL": 79
          },
          "indices": 80,
          "material": 2
        }
      ],
      "name": "wheel_FL"
    },
    {
      "primitives": [
        {
          "attributes": {
            "POSITION": 81,
            "NORMAL": 82
          },
          "indices": 83,
          "material": 2
        }
      ],
      "name": "wheel_FR"
    },
    {
      "primitives": [
        {
          "attributes": {
            "POSITION": 84,
            "NORMAL": 85
          },
          "indices": 86,
          "material": 2
        }
      ],
      "name": "wheel_RL"
    },
    {
      "primitives": [
        {
          "attributes": {
            "POSITION": 87,
            "NORMAL": 88
          },
          "indices": 89,
          "material": 2
        }
      ],
      "name": "wheel_RR"
    }
  ],
  "accessors": [
    {
      "bufferView": 0,
      "componentType": 5126,
      "count": 24,
      "type": "VEC3",
      "min": [
        -2.299999952316284,
        0.27000001072883606,
        -0.8999999761581421
      ],
      "max": [
        2.299999952316284,
        0.7900000214576721,
        0.8999999761581421
      ]
    },
    {
      "bufferView": 0,
      "componentType": 5126,
      "count": 24,
      "type": "VEC3",
      "byteOffset": 12,
      "min": [
        -0.9743912220001221,
        -1.0,
        -0.985350489616394
      ],
      "max": [
        0.9449860453605652,
        1.0,
        0.985350489616394
      ]
    },
    {
      "bufferView": 1,
      "componentType": 5123,
      "count": 36,
      "type": "SCALAR"
    },
    {
      "bufferView": 2,
      "componentType": 5126,
      "count": 24,
      "type": "VEC3",
      "min": [
        -1.0499999523162842,
        0.9300000071525574,
        -0.75
      ],
      "max": [
        1.149999976158142,
        1.4500000476837158,
        0.75
      ]
    },
    {
      "bufferView": 2,
      "componentType": 5126,
      "count": 24,
      "type": "VEC3",
      "byteOffset": 12,
      "min": [
        -0.8369696140289307,
        -1.0,
        -0.9701424837112427
      ],
      "max": [
        0.7779411673545837,
        1.0,
        0.9701424837112427
      ]
    },
    {
      "bufferView": 3,
      "componentType": 5123,
      "count": 36,
      "type": "SCALAR"
    },
    {
      "bufferView": 4,
      "componentType": 5126,
      "count": 24,
      "type": "VEC3",
      "min": [
        0.800000011920929,
        0.7699999809265137,
        -0.75
      ],
      "max": [
        2.200000047683716,
        0.8299999833106995,
        0.75
      ]
    },
    {
      "bufferView": 4,
      "componentType": 5126,
      "count": 24,
      "type": "VEC3",
      "byteOffset": 12,
      "min": [
        -1.0,
        -1.0,
        -0.6000000238418579
      ],
      "max": [
        0.4472135901451111,
        1.0,
        0.6000000238418579
      ]
    },
    {
      "bufferView": 5,
      "componentType": 5123,
      "count": 36,
      "type": "SCALAR"
    },
    {
      "bufferView": 6,
      "componentType": 5126,
      "count": 24,
      "type": "VEC3",
      "min": [
        -2.1500000953674316,
        0.7749999761581421,
        -0.7400000095367432
      ],
      "max": [
        -1.0499999523162842,
        0.824999988079071,
        0.7400000095367432
      ]
    },
    {
      "bufferView": 6,
      "componentType": 5126,
      "count": 24,
      "type": "VEC3",
      "byteOffset": 12,
      "min": [
        -0.4472135901451111,
        -1.0,
        -0.5812382102012634
      ],
      "max": [
        1.0,
        1.0,
        0.5812382102012634
      ]
    },
    {
      "bufferView": 7,
      "componentType": 5123,
      "count": 36,
      "type": "SCALAR"
    },
    {
      "bufferView": 8,
      "componentType": 5126,
      "count": 24,
      "type": "VEC3",
      "min": [
        0.15000000596046448,
        0.2199999988079071,
        -0.9300000071525574
      ],
      "max": [
        1.25,
        0.8399999737739563,
        -0.8899999856948853
      ]
    },
    {
      "bufferView": 8,
      "componentType": 5126,
      "count": 24,
      "type": "VEC3",
      "byteOffset": 12,
      "min": [
        -1.0,
        -1.0,
        -1.0
      ],
      "max": [
        1.0,
        1.0,
        1.0
      ]
    },
    {
      "bufferView": 9,
      "componentType": 5123,
      "count": 36,
      "type": "SCALAR"
    },
    {
      "bufferView": 10,
      "componentType": 5126,
      "count": 24,
      "type": "VEC3",
      "min": [
        0.15000000596046448,
        0.2199999988079071,
        0.8899999856948853
      ],
      "max": [
        1.25,
        0.8399999737739563,
        0.9300000071525574
      ]
    },
    {
      "bufferView": 10,
      "componentType": 5126,
      "count": 24,
      "type": "VEC3",
      "byteOffset": 12,
      "min": [
        -1.0,
        -1.0,
        -1.0
      ],
      "max": [
        1.0,
        1.0,
        1.0
      ]
    },
    {
      "bufferView": 11,
      "componentType": 5123,
      "count": 36,
      "type": "SCALAR"
    },
    {
      "bufferView": 12,
      "componentType": 5126,
      "count": 24,
      "type": "VEC3",
      "min": [
        -1.0,
        0.2199999988079071,
        -0.9300000071525574
      ],
      "max": [
        0.0,
        0.8399999737739563,
        -0.8899999856948853
      ]
    },
    {
      "bufferView": 12,
      "componentType": 5126,
      "count": 24,
      "type": "VEC3",
      "byteOffset": 12,
      "min": [
        -1.0,
        -1.0,
        -1.0
      ],
      "max": [
        1.0,
        1.0,
        1.0
      ]
    },
    {
      "bufferView": 13,
      "componentType": 5123,
      "count": 36,
      "type": "SCALAR"
    },
    {
      "bufferView": 14,
      "componentType": 5126,
      "count": 24,
      "type": "VEC3",
      "min": [
        -1.0,
        0.2199999988079071,
        0.8899999856948853
      ],
      "max": [
        0.0,
        0.8399999737739563,
        0.9300000071525574
      ]
    },
    {
      "bufferView": 14,
      "componentType": 5126,
      "count": 24,
      "type": "VEC3",
      "byteOffset": 12,
      "min": [
        -1.0,
        -1.0,
        -1.0
      ],
      "max": [
        1.0,
        1.0,
        1.0
      ]
    },
    {
      "bufferView": 15,
      "componentType": 5123,
      "count": 36,
      "type": "SCALAR"
    },
    {
      "bufferView": 16,
      "componentType": 5126,
      "count": 24,
      "type": "VEC3",
      "min": [
        2.059999942779541,
        0.44999998807907104,
        -0.6299999952316284
      ],
      "max": [
        2.240000009536743,
        0.6100000143051147,
        -0.6100000143051147
      ]
    },
    {
      "bufferView": 16,
      "componentType": 5126,
      "count": 24,
      "type": "VEC3",
      "byteOffset": 12,
      "min": [
        -1.0,
        -1.0,
        -1.0
      ],
      "max": [
        1.0,
        1.0,
        1.0
      ]
    },
    {
      "bufferView": 17,
      "componentType": 5123,
      "count": 36,
      "type": "SCALAR"
    },
    {
      "bufferView": 18,
      "componentType": 5126,
      "count": 24,
      "type": "VEC3",
      "min": [
        0.800000011920929,
        1.0399999618530273,
        -0.3700000047683716
      ],
      "max": [
        1.2999999523162842,
        1.059999942779541,
        -0.33000001311302185
      ]
    },
    {
      "bufferView": 18,
      "componentType": 5126,
      "count": 24,
      "type": "VEC3",
      "byteOffset": 12,
      "min": [
        -1.0,
        -1.0,
        -1.0
      ],
      "max": [
        1.0,
        1.0,
        1.0
      ]
    },
    {
      "bufferView": 19,
      "componentType": 5123,
      "count": 36,
      "type": "SCALAR"
    },
    {
      "bufferView": 20,
      "componentType": 5126,
      "count": 24,
      "type": "VEC3",
      "min": [
        0.800000011920929,
        1.0399999618530273,
        0.33000001311302185
      ],
      "max": [
        1.2999999523162842,
        1.059999942779541,
        0.3700000047683716
      ]
    },
    {
      "bufferView": 20,
      "componentType": 5126,
      "count": 24,
      "type": "VEC3",
      "byteOffset": 12,
      "min": [
        -1.0,
        -1.0,
        -1.0
      ],
      "max": [
        1.0,
        1.0,
        1.0
      ]
    },
    {
      "bufferView": 21,
      "componentType": 5123,
      "count": 36,
      "type": "SCALAR"
    },
    {
      "bufferView": 22,
      "componentType": 5126,
      "count": 24,
      "type": "VEC3",
      "min": [
        2.255000114440918,
        0.3700000047683716,
        -0.5400000214576721
      ],
      "max": [
        2.305000066757202,
        0.5899999737739563,
        0.5400000214576721
      ]
    },
    {
      "bufferView": 22,
      "componentType": 5126,
      "count": 24,
      "type": "VEC3",
      "byteOffset": 12,
      "min": [
        -1.0,
        -1.0,
        -1.0
      ],
      "max": [
        1.0,
        1.0,
        1.0
      ]
    },
    {
      "bufferView": 23,
      "componentType": 5123,
      "count": 36,
      "type": "SCALAR"
    },
    {
      "bufferView": 24,
      "componentType": 5126,
      "count": 24,
      "type": "VEC3",
      "min": [
        2.25,
        0.25,
        -0.800000011920929
      ],
      "max": [
        2.3299999237060547,
        0.38999998569488525,
        0.800000011920929
      ]
    },
    {
      "bufferView": 24,
      "componentType": 5126,
      "count": 24,
      "type": "VEC3",
      "byteOffset": 12,
      "min": [
        -1.0,
        -1.0,
        -1.0
      ],
      "max": [
        1.0,
        1.0,
        1.0
      ]
    },
    {
      "bufferView": 25,
      "componentType": 5123,
      "count": 36,
      "type": "SCALAR"
    },
    {
      "bufferView": 26,
      "componentType": 5126,
      "count": 24,
      "type": "VEC3",
      "min": [
        -2.3299999237060547,
        0.27000001072883606,
        -0.800000011920929
      ],
      "max": [
        -2.25,
        0.4099999964237213,
        0.800000011920929
      ]
    },
    {
      "bufferView": 26,
      "componentType": 5126,
      "count": 24,
      "type": "VEC3",
      "byteOffset": 12,
      "min": [
        -1.0,
        -1.0,
        -1.0
      ],
      "max": [
        1.0,
        1.0,
        1.0
      ]
    },
    {
      "bufferView": 27,
      "componentType": 5123,
      "count": 36,
      "type": "SCALAR"
    },
    {
      "bufferView": 28,
      "componentType": 5126,
      "count": 24,
      "type": "VEC3",
      "min": [
        1.0700000524520874,
        0.8199999928474426,
        -0.7250000238418579
      ],
      "max": [
        1.1299999952316284,
        1.1799999475479126,
        0.7250000238418579
      ]
    },
    {
      "bufferView": 28,
      "componentType": 5126,
      "count": 24,
      "type": "VEC3",
      "byteOffset": 12,
      "min": [
        -1.0,
        -1.0,
        -1.0
      ],
      "max": [
        1.0,
        1.0,
        1.0
      ]
    },
    {
      "bufferView": 29,
      "componentType": 5123,
      "count": 36,
      "type": "SCALAR"
    },
    {
      "bufferView": 30,
      "componentType": 5126,
      "count": 24,
      "type": "VEC3",
      "min": [
        -1.0800000429153442,
        0.8100000023841858,
        -0.6899999976158142
      ],
      "max": [
        -1.0199999809265137,
        1.1100000143051147,
        0.6899999976158142
      ]
    },
    {
      "bufferView": 30,
      "componentType": 5126,
      "count": 24,
      "type": "VEC3",
      "byteOffset": 12,
      "min": [
        -1.0,
        -1.0,
        -1.0
      ],
      "max": [
        1.0,
        1.0,
        1.0
      ]
    },
    {
      "bufferView": 31,
      "componentType": 5123,
      "count": 36,
      "type": "SCALAR"
    },
    {
      "bufferView": 32,
      "componentType": 5126,
      "count": 24,
      "type": "VEC3",
      "min": [
        -0.875,
        1.0399999618530273,
        -0.7699999809265137
      ],
      "max": [
        0.875,
        1.2599999904632568,
        -0.7300000190734863
      ]
    },
    {
      "bufferView": 32,
      "componentType": 5126,
      "count": 24,
      "type": "VEC3",
      "byteOffset": 12,
      "min": [
        -1.0,
        -1.0,
        -1.0
      ],
      "max": [
        1.0,
        1.0,
        1.0
      ]
    },
    {
      "bufferView": 33,
      "componentType": 5123,
      "count": 36,
      "type": "SCALAR"
    },
    {
      "bufferView": 34,
      "componentType": 5126,
      "count": 24,
      "type": "VEC3",
      "min": [
        -0.875,
        1.0399999618530273,
        0.7300000190734863
      ],
      "max": [
        0.875,
        1.2599999904632568,
        0.7699999809265137
      ]
    },
    {
      "bufferView": 34,
      "componentType": 5126,
      "count": 24,
      "type": "VEC3",
      "byteOffset": 12,
      "min": [
        -1.0,
        -1.0,
        -1.0
      ],
      "max": [
        1.0,
        1.0,
        1.0
      ]
    },
    {
      "bufferView": 35,
      "componentType": 5123,
      "count": 36,
      "type": "SCALAR"
    },
    {
      "bufferView": 36,
      "componentType": 5126,
      "count": 24,
      "type": "VEC3",
      "min": [
        2.130000114440918,
        0.4699999988079071,
        -0.7900000214576721
      ],
      "max": [
        2.2300000190734863,
        0.6299999952316284,
        -0.3700000047683716
      ]
    },
    {
      "bufferView": 36,
      "componentType": 5126,
      "count": 24,
      "type": "VEC3",
      "byteOffset": 12,
      "min": [
        -1.0,
        -1.0,
        -1.0
      ],
      "max": [
        1.0,
        1.0,
        1.0
      ]
    },
    {
      "bufferView": 37,
      "componentType": 5123,
      "count": 36,
      "type": "SCALAR"
    },
    {
      "bufferView": 38,
      "componentType": 5126,
      "count": 24,
      "type": "VEC3",
      "min": [
        2.130000114440918,
        0.4699999988079071,
        0.3700000047683716
      ],
      "max": [
        2.2300000190734863,
        0.6299999952316284,
        0.7900000214576721
      ]
    },
    {
      "bufferView": 38,
      "componentType": 5126,
      "count": 24,
      "type": "VEC3",
      "byteOffset": 12,
      "min": [
        -1.0,
        -1.0,
        -1.0
      ],
      "max": [
        1.0,
        1.0,
        1.0
      ]
    },
    {
      "bufferView": 39,
      "componentType": 5123,
      "count": 36,
      "type": "SCALAR"
    },
    {
      "bufferView": 40,
      "componentType": 5126,
      "count": 24,
      "type": "VEC3",
      "min": [
        -2.2300000190734863,
        0.5299999713897705,
        -0.7599999904632568
      ],
      "max": [
        -2.130000114440918,
        0.6700000166893005,
        -0.3400000035762787
      ]
    },
    {
      "bufferView": 40,
      "componentType": 5126,
      "count": 24,
      "type": "VEC3",
      "byteOffset": 12,
      "min": [
        -1.0,
        -1.0,
        -1.0
      ],
      "max": [
        1.0,
        1.0,
        1.0
      ]
    },
    {
      "bufferView": 41,
      "componentType": 5123,
      "count": 36,
      "type": "SCALAR"
    },
    {
      "bufferView": 42,
      "componentType": 5126,
      "count": 24,
      "type": "VEC3",
      "min": [
        -2.2300000190734863,
        0.5299999713897705,
        0.3400000035762787
      ],
      "max": [
        -2.130000114440918,
        0.6700000166893005,
        0.7599999904632568
      ]
    },
    {
      "bufferView": 42,
      "componentType": 5126,
      "count": 24,
      "type": "VEC3",
      "byteOffset": 12,
      "min": [
        -1.0,
        -1.0,
        -1.0
      ],
      "max": [
        1.0,
        1.0,
        1.0
      ]
    },
    {
      "bufferView": 43,
      "componentType": 5123,
      "count": 36,
      "type": "SCALAR"
    },
    {
      "bufferView": 44,
      "componentType": 5126,
      "count": 24,
      "type": "VEC3",
      "min": [
        2.119999885559082,
        0.47999998927116394,
        -0.8799999952316284
      ],
      "max": [
        2.200000047683716,
        0.6200000047683716,
        -0.7599999904632568
      ]
    },
    {
      "bufferView": 44,
      "componentType": 5126,
      "count": 24,
      "type": "VEC3",
      "byteOffset": 12,
      "min": [
        -1.0,
        -1.0,
        -1.0
      ],
      "max": [
        1.0,
        1.0,
        1.0
      ]
    },
    {
      "bufferView": 45,
      "componentType": 5123,
      "count": 36,
      "type": "SCALAR"
    },
    {
      "bufferView": 46,
      "componentType": 5126,
      "count": 24,
      "type": "VEC3",
      "min": [
        2.119999885559082,
        0.47999998927116394,
        0.7599999904632568
      ],
      "max": [
        2.200000047683716,
        0.6200000047683716,
        0.8799999952316284
      ]
    },
    {
      "bufferView": 46,
      "componentType": 5126,
      "count": 24,
      "type": "VEC3",
      "byteOffset": 12,
      "min": [
        -1.0,
        -1.0,
        -1.0
      ],
      "max": [
        1.0,
        1.0,
        1.0
      ]
    },
    {
      "bufferView": 47,
      "componentType": 5123,
      "count": 36,
      "type": "SCALAR"
    },
    {
      "bufferView": 48,
      "componentType": 5126,
      "count": 24,
      "type": "VEC3",
      "min": [
        -2.200000047683716,
        0.5299999713897705,
        -0.8799999952316284
      ],
      "max": [
        -2.119999885559082,
        0.6700000166893005,
        -0.7599999904632568
      ]
    },
    {
      "bufferView": 48,
      "componentType": 5126,
      "count": 24,
      "type": "VEC3",
      "byteOffset": 12,
      "min": [
        -1.0,
        -1.0,
        -1.0
      ],
      "max": [
        1.0,
        1.0,
        1.0
      ]
    },
    {
      "bufferView": 49,
      "componentType": 5123,
      "count": 36,
      "type": "SCALAR"
    },
    {
      "bufferView": 50,
      "componentType": 5126,
      "count": 24,
      "type": "VEC3",
      "min": [
        -2.200000047683716,
        0.5299999713897705,
        0.7599999904632568
      ],
      "max": [
        -2.119999885559082,
        0.6700000166893005,
        0.8799999952316284
      ]
    },
    {
      "bufferView": 50,
      "componentType": 5126,
      "count": 24,
      "type": "VEC3",
      "byteOffset": 12,
      "min": [
        -1.0,
        -1.0,
        -1.0
      ],
      "max": [
        1.0,
        1.0,
        1.0
      ]
    },
    {
      "bufferView": 51,
      "componentType": 5123,
      "count": 36,
      "type": "SCALAR"
    },
    {
      "bufferView": 52,
      "componentType": 5126,
      "count": 50,
      "type": "VEC3",
      "min": [
        -0.33000001311302185,
        -0.33000001311302185,
        -0.12999999523162842
      ],
      "max": [
        0.33000001311302185,
        0.33000001311302185,
        0.12999999523162842
      ]
    },
    {
      "bufferView": 52,
      "componentType": 5126,
      "count": 50,
      "type": "VEC3",
      "byteOffset": 12,
      "min": [
        -1.0,
        -1.0,
        -1.0
      ],
      "max": [
        1.0,
        1.0,
        1.0
      ]
    },
    {
      "bufferView": 53,
      "componentType": 5123,
      "count": 288,
      "type": "SCALAR"
    },
    {
      "bufferView": 54,
      "componentType": 5126,
      "count": 50,
      "type": "VEC3",
      "min": [
        -0.33000001311302185,
        -0.33000001311302185,
        -0.12999999523162842
      ],
      "max": [
        0.33000001311302185,
        0.33000001311302185,
        0.12999999523162842
      ]
    },
    {
      "bufferView": 54,
      "componentType": 5126,
      "count": 50,
      "type": "VEC3",
      "byteOffset": 12,
      "min": [
        -1.0,
        -1.0,
        -1.0
      ],
      "max": [
        1.0,
        1.0,
        1.0
      ]
    },
    {
      "bufferView": 55,
      "componentType": 5123,
      "count": 288,
      "type": "SCALAR"
    },
    {
      "bufferView": 56,
      "componentType": 5126,
      "count": 50,
      "type": "VEC3",
      "min": [
        -0.33000001311302185,
        -0.33000001311302185,
        -0.12999999523162842
      ],
      "max": [
        0.33000001311302185,
        0.33000001311302185,
        0.12999999523162842
      ]
    },
    {
      "bufferView": 56,
      "componentType": 5126,
      "count": 50,
      "type": "VEC3",
      "byteOffset": 12,
      "min": [
        -1.0,
        -1.0,
        -1.0
      ],
      "max": [
        1.0,
        1.0,
        1.0
      ]
    },
    {
      "bufferView": 57,
      "componentType": 5123,
      "count": 288,
      "type": "SCALAR"
    },
    {
      "bufferView": 58,
      "componentType": 5126,
      "count": 50,
      "type": "VEC3",
      "min": [
        -0.33000001311302185,
        -0.33000001311302185,
        -0.12999999523162842
      ],
      "max": [
        0.33000001311302185,
        0.33000001311302185,
        0.12999999523162842
      ]
    },
    {
      "bufferView": 58,
      "componentType": 5126,
      "count": 50,
      "type": "VEC3",
      "byteOffset": 12,
      "min": [
        -1.0,
        -1.0,
        -1.0
      ],
      "max": [
        1.0,
        1.0,
        1.0
      ]
    },
    {
      "bufferView": 59,
      "componentType": 5123,
      "count": 288,
      "type": "SCALAR"
    }
  ],
  "bufferViews": [
    {
      "buffer": 0,
      "byteOffset": 0,
      "byteLength": 576,
      "byteStride": 24
    },
    {
      "buffer": 0,
      "byteOffset": 576,
      "byteLength": 72
    },
    {
      "buffer": 0,
      "byteOffset": 648,
      "byteLength": 576,
      "byteStride": 24
    },
    {
      "buffer": 0,
      "byteOffset": 1224,
      "byteLength": 72
    },
    {
      "buffer": 0,
      "byteOffset": 1296,
      "byteLength": 576,
      "byteStride": 24
    },
    {
      "buffer": 0,
      "byteOffset": 1872,
      "byteLength": 72
    },
    {
      "buffer": 0,
      "byteOffset": 1944,
      "byteLength": 576,
      "byteStride": 24
    },
    {
      "buffer": 0,
      "byteOffset": 2520,
      "byteLength": 72
    },
    {
      "buffer": 0,
      "byteOffset": 2592,
      "byteLength": 576,
      "byteStride": 24
    },
    {
      "buffer": 0,
      "byteOffset": 3168,
      "byteLength": 72
    },
    {
      "buffer": 0,
      "byteOffset": 3240,
      "byteLength": 576,
      "byteStride": 24
    },
    {
      "buffer": 0,
      "byteOffset": 3816,
      "byteLength": 72
    },
    {
      "buffer": 0,
      "byteOffset": 3888,
      "byteLength": 576,
      "byteStride": 24
    },
    {
      "buffer": 0,
      "byteOffset": 4464,
      "byteLength": 72
    },
    {
      "buffer": 0,
      "byteOffset": 4536,
      "byteLength": 576,
      "byteStride": 24
    },
    {
      "buffer": 0,
      "byteOffset": 5112,
      "byteLength": 72
    },
    {
      "buffer": 0,
      "byteOffset": 5184,
      "byteLength": 576,
      "byteStride": 24
    },
    {
      "buffer": 0,
      "byteOffset": 5760,
      "byteLength": 72
    },
    {
      "buffer": 0,
      "byteOffset": 5832,
      "byteLength": 576,
      "byteStride": 24
    },
    {
      "buffer": 0,
      "byteOffset": 6408,
      "byteLength": 72
    },
    {
      "buffer": 0,
      "byteOffset": 6480,
      "byteLength": 576,
      "byteStride": 24
    },
    {
      "buffer": 0,
      "byteOffset": 7056,
      "byteLength": 72
    },
    {
      "buffer": 0,
      "byteOffset": 7128,
      "byteLength": 576,
      "byteStride": 24
    },
    {
      "buffer": 0,
      "byteOffset": 7704,
      "byteLength": 72
    },
    {
      "buffer": 0,
      "byteOffset": 7776,
      "byteLength": 576,
      "byteStride": 24
    },
    {
      "buffer": 0,
      "byteOffset": 8352,
      "byteLength": 72
    },
    {
      "buffer": 0,
      "byteOffset": 8424,
      "byteLength": 576,
      "byteStride": 24
    },
    {
      "buffer": 0,
      "byteOffset": 9000,
      "byteLength": 72
    },
    {
      "buffer": 0,
      "byteOffset": 9072,
      "byteLength": 576,
      "byteStride": 24
    },
    {
      "buffer": 0,
      "byteOffset": 9648,
      "byteLength": 72
    },
    {
      "buffer": 0,
      "byteOffset": 9720,
      "byteLength": 576,
      "byteStride": 24
    },
    {
      "buffer": 0,
      "byteOffset": 10296,
      "byteLength": 72
    },
    {
      "buffer": 0,
      "byteOffset": 10368,
      "byteLength": 576,
      "byteStride": 24
    },
    {
      "buffer": 0,
      "byteOffset": 10944,
      "byteLength": 72
    },
    {
      "buffer": 0,
      "byteOffset": 11016,
      "byteLength": 576,
      "byteStride": 24
    },
    {
      "buffer": 0,
      "byteOffset": 11592,
      "byteLength": 72
    },
    {
      "buffer": 0,
      "byteOffset": 11664,
      "byteLength": 576,
      "byteStride": 24
    },
    {
      "buffer": 0,
      "byteOffset": 12240,
      "byteLength": 72
    },
    {
      "buffer": 0,
      "byteOffset": 12312,
      "byteLength": 576,
      "byteStride": 24
    },
    {
      "buffer": 0,
      "byteOffset": 12888,
      "byteLength": 72
    },
    {
      "buffer": 0,
      "byteOffset": 12960,
      "byteLength": 576,
      "byteStride": 24
    },
    {
      "buffer": 0,
      "byteOffset": 13536,
      "byteLength": 72
    },
    {
      "buffer": 0,
      "byteOffset": 13608,
      "byteLength": 576,
      "byteStride": 24
    },
    {
      "buffer": 0,
      "byteOffset": 14184,
      "byteLength": 72
    },
    {
      "buffer": 0,
      "byteOffset": 14256,
      "byteLength": 576,
      "byteStride": 24
    },
    {
      "buffer": 0,
      "byteOffset": 14832,
      "byteLength": 72
    },
    {
      "buffer": 0,
      "byteOffset": 14904,
      "byteLength": 576,
      "byteStride": 24
    },
    {
      "buffer": 0,
      "byteOffset": 15480,
      "byteLength": 72
    },
    {
      "buffer": 0,
      "byteOffset": 15552,
      "byteLength": 576,
      "byteStride": 24
    },
    {
      "buffer": 0,
      "byteOffset": 16128,
      "byteLength": 72
    },
    {
      "buffer": 0,
      "byteOffset": 16200,
      "byteLength": 576,
      "byteStride": 24
    },
    {
      "buffer": 0,
      "byteOffset": 16776,
      "byteLength": 72
    },
    {
      "buffer": 0,
      "byteOffset": 16848,
      "byteLength": 1200,
      "byteStride": 24
    },
    {
      "buffer": 0,
      "byteOffset": 18048,
      "byteLength": 576
    },
    {
      "buffer": 0,
      "byteOffset": 18624,
      "byteLength": 1200,
      "byteStride": 24
    },
    {
      "buffer": 0,
      "byteOffset": 19824,
      "byteLength": 576
    },
    {
      "buffer": 0,
      "byteOffset": 20400,
      "byteLength": 1200,
      "byteStride": 24
    },
    {
      "buffer": 0,
      "byteOffset": 21600,
      "byteLength": 576
    },
    {
      "buffer": 0,
      "byteOffset": 22176,
      "byteLength": 1200,
      "byteStride": 24
    },
    {
      "buffer": 0,
      "byteOffset": 23376,
      "byteLength": 576
    }
  ],
  "buffers": [
    {
      "byteLength": 23952,
      "uri": "data:application/octet-stream;base64,"
    }
  ],
  "materials": [
    {
      "pbrMetallicRoughness": {
        "baseColorFactor": [
          0.18,
          0.31,
          0.55,
          1.0
        ],
        "metallicFactor": 0.35,
        "roughnessFactor": 0.42
      }
    },
    {
      "pbrMetallicRoughness": {
        "baseColorFactor": [
          0.7,
          0.8,
          0.95,
          0.5
        ],
        "metallicFactor": 0.1,
        "roughnessFactor": 0.05
      },
      "alphaMode": "BLEND",
      "doubleSided": true
    },
    {
      "pbrMetallicRoughness": {
        "baseColorFactor": [
          0.08,
          0.08,
          0.08,
          1.0
        ],
        "metallicFactor": 0.0,
        "roughnessFactor": 0.95
      }
    },
    {
      "pbrMetallicRoughness": {
        "baseColorFactor": [
          0.85,
          0.85,
          0.8,
          1.0
        ],
        "metallicFactor": 0.2,
        "roughnessFactor": 0.2
      },
      "emissiveFactor": [
        0.5,
        0.5,
        0.45
      ]
    },
    {
      "pbrMetallicRoughness": {
        "baseColorFactor": [
          0.5,
          0.05,
          0.05,
          1.0
        ],
        "metallicFactor": 0.1,
        "roughnessFactor": 0.35
      },
      "emissiveFactor": [
        0.12,
        0.0,
        0.0
      ]
    },
    {
      "pbrMetallicRoughness": {
        "baseColorFactor": [
          0.85,
          0.5,
          0.05,
          1.0
        ],
        "metallicFactor": 0.1,
        "roughnessFactor": 0.25
      },
      "emissiveFactor": [
        0.35,
        0.18,
        0.0
      ]
    }
  ]
}