{
  "asset": {
    "version": "2.0",
    "generator": "FlowEngine gen_models.py"
  },
  "scene": 0,
  "scenes": [
    {
      "nodes": [
        0,
        1,
        2,
        3,
        4,
        5,
        6,
        7,
        8,
        9,
        10,
        11,
        12,
        13,
        14,
        15,
        16,
        17,
        18,
        19,
        20,
        21,
        22
      ]
    }
  ],
  "nodes": [
    {
      "name": "body",
      "mesh": 0
    },
    {
      "name": "cabin",
      "mesh": 1
    },
    {
      "name": "rear",
      "mesh": 2
    },
    {
      "name": "grille",
      "mesh": 3
    },
    {
      "name": "bumper_front",
      "mesh": 4
    },
    {
      "name": "bumper_rear",
      "mesh": 5
    },
    {
      "name": "cladding_L",
      "mesh": 6
    },
    {
      "name": "cladding_R",
      "mesh": 7
    },
    {
      "name": "roof_rail_L",
      "mesh": 8
    },
    {
      "name": "roof_rail_R",
      "mesh": 9
    },
    {
      "name": "windshield",
      "mesh": 10
    },
    {
      "name": "side_window_L",
      "mesh": 11
    },
    {
      "name": "side_window_R",
      "mesh": 12
    },
    {
      "name": "headlight_L",
      "mesh": 13
    },
    {
      "name": "headlight_R",
      "mesh": 14
    },
    {
      "name": "brakelight_L",
      "mesh": 15
    },
    {
      "name": "brakelight_R",
      "mesh": 16
    },
    {
      "name": "turnsignal_FL",
      "mesh": 17
    },
    {
      "name": "turnsignal_FR",
      "mesh": 18
    },
    {
      "name": "turnsignal_RL",
      "mesh": 19
    },
    {
      "name": "turnsignal_RR",
      "mesh": 20
    },
    {
      "name": "axle_front",
      "translation": [
        1.4,
        0.38,
        0.0
      ],
      "children": [
        23,
        24
      ]
    },
    {
      "name": "axle_rear",
      "translation": [
        -1.4,
        0.38,
        0.0
      ],
      "children": [
        25,
        26
      ]
    },
    {
      "name": "wheel_FL",
      "translation": [
        0.0,
        0.0,
        -0.93
      ],
      "mesh": 21
    },
    {
      "name": "wheel_FR",
      "translation": [
        0.0,
        0.0,
        0.93
      ],
      "mesh": 22
    },
    {
      "name": "wheel_RL",
      "translation": [
        0.0,
        0.0,
        -0.93
      ],
      "mesh": 23
    },
    {
      "name": "wheel_RR",
      "translation": [
        0.0,
        0.0,
        0.93
      ],
      "mesh": 24
    }
  ],
  "meshes": [
    {
      "primitives": [
        {
          "attributes": {
            "POSITION": 0,
            "NORMAL": 1
          },
          "indices": 2,
          "material": 0
        }
      ],
      "name": "body"
    },
    {
      "primitives": [
        {
          "attributes": {
            "POSITION": 3,
            "NORMAL": 4
          },
          "indices": 5,
          "material": 0
        }
      ],
      "name": "cabin"
    },
    {
      "primitives": [
        {
          "attributes": {
            "POSITION": 6,
            "NORMAL": 7
          },
          "indices": 8,
          "material": 0
        }
      ],
      "name": "rear"
    },
    {
      "primitives": [
        {
          "attributes": {
            "POSITION": 9,
            "NORMAL": 10
          },
          "indices": 11,
          "material": 2
        }
      ],
      "name": "grille"
    },
    {
      "primitives": [
        {
          "attributes": {
            "POSITION": 12,
            "NORMAL": 13
          },
          "indices": 14,
          "material": 2
        }
      ],
      "name": "bumper_front"
    },
    {
      "primitives": [
        {
          "attributes": {
            "POSITION": 15,
            "NORMAL": 16
          },
          "indices": 17,
          "material": 2
        }
      ],
      "name": "bumper_rear"
    },
    {
      "primitives": [
        {
          "attributes": {
            "POSITION": 18,
            "NORMAL": 19
          },
          "indices": 20,
          "material": 2
        }
      ],
      "name": "cladding_L"
    },
    {
      "primitives": [
        {
          "attributes": {
            "POSITION": 21,
            "NORMAL": 22
          },
          "indices": 23,
          "material": 2
        }
      ],
      "name": "cladding_R"
    },
    {
      "primitives": [
        {
          "attributes": {
            "POSITION": 24,
            "NORMAL": 25
          },
          "indices": 26,
          "material": 2
        }
      ],
      "name": "roof_rail_L"
    },
    {
      "primitives": [
        {
          "attributes": {
            "POSITION": 27,
            "NORMAL": 28
          },
          "indices": 29,
          "material": 2
        }
      ],
      "name": "roof_rail_R"
    },
    {
      "primitives": [
        {
          "attributes": {
            "POSITION": 30,
            "NORMAL": 31
          },
          "indices": 32,
          "material": 1
        }
      ],
      "name": "windshield"
    },
    {
      "primitives": [
        {
          "attributes": {
            "POSITION": 33,
            "NORMAL": 34
          },
          "indices": 35,
          "material": 1
        }
      ],
      "name": "side_window_L"
    },
    {
      "primitives": [
        {
          "attributes": {
            "POSITION": 36,
            "NORMAL": 37
          },
          "indices": 38,
          "material": 1
        }
      ],
      "name": "side_window_R"
    },
    {
      "primitives": [
        {
          "attributes": {
            "POSITION": 39,
            "NORMAL": 40
          },
          "indices": 41,
          "material": 3
        }
      ],
      "name": "headlight_L"
    },
    {
      "primitives": [
        {
          "attributes": {
            "POSITION": 42,
            "NORMAL": 43
          },
          "indices": 44,
          "material": 3
        }
      ],
      "name": "headlight_R"
    },
    {
      "primitives": [
        {
          "attributes": {
            "POSITION": 45,
            "NORMAL": 46
          },
          "indices": 47,
          "material": 4
        }
      ],
      "name": "brakelight_L"
    },
    {
      "primitives": [
        {
          "attributes": {
            "POSITION": 48,
            "NORMAL": 49
          },
          "indices": 50,
          "material": 4
        }
      ],
      "name": "brakelight_R"
    },
    {
      "primitives": [
        {
          "attributes": {
            "POSITION": 51,
            "NORMAL": 52
          },
          "indices": 53,
          "material": 5
        }
      ],
      "name": "turnsignal_FL"
    },
    {
      "primitives": [
        {
          "attributes": {
            "POSITION": 54,
            "NORMAL": 55
          },
          "indices": 56,
          "material": 5
        }
      ],
      "name": "turnsignal_FR"
    },
    {
      "primitives": [
        {
          "attributes": {
            "POSITION": 57,
            "NORMAL": 58
          },
          "indices": 59,
          "material": 5
        }
      ],
      "name": "turnsignal_RL"
    },
    {
      "primitives": [
        {
          "attributes": {
            "POSITION": 60,
            "NORMAL": 61
          },
          "indices": 62,
          "material": 5
        }
      ],
      "name": "turnsignal_RR"
    },
    {
      "primitives": [
        {
          "attributes": {
            "POSITION": 63,
            "NORMAL": 64
          },
          "indices": 65,
          "material": 2
        }
      ],
      "name": "wheel_FL"
    },
    {
      "primitives": [
        {
          "attributes": {
            "POSITION": 66,
            "NORMAL": 67
          },
          "indices": 68,
          "material": 2
        }
      ],
      "name": "wheel_FR"
    },
    {
      "primitives": [
        {
          "attributes": {
            "POSITION": 69,
            "NORMAL": 70
          },
          "indices": 71,
          "material": 2
        }
      ],
      "name": "wheel_RL"
    },
    {
      "primitives": [
        {
          "attributes": {
            "POSITION": 72,
            "NORMAL": 73
          },
          "indices": 74,
          "material": 2
        }
      ],
      "name": "wheel_RR"
    }
  ],
  "accessors": [
    {
      "bufferView": 0,
      "componentType": 5126,
      "count": 24,
      "type": "VEC3",
      "min": [
        -2.299999952316284,
        0.10499999672174454,
        -0.949999988079071
      ],
      "max": [
        2.299999952316284,
        1.0549999475479126,
        0.949999988079071
      ]
    },
    {
      "bufferView": 0,
      "componentType": 5126,
      "count": 24,
      "type": "VEC3",
      "byteOffset": 12,
      "min": [
        -0.9945054650306702,
        -1.0,
        -0.993363082408905
      ],
      "max": [
        0.9861119389533997,
        1.0,
        0.993363082408905
      ]
    },
    {
      "bufferView": 1,
      "componentType": 5123,
      "count": 36,
      "type": "SCALAR"
    },
    {
      "bufferView": 2,
      "componentType": 5126,
      "count": 24,
      "type": "VEC3",
      "min": [
        -1.2000000476837158,
        1.100000023841858,
        -0.75
      ],
      "max": [
        0.6000000238418579,
        1.7000000476837158,
        0.75
      ]
    },
    {
      "bufferView": 2,
      "componentType": 5126,
      "count": 24,
      "type": "VEC3",
      "byteOffset": 12,
      "min": [
        -0.9388763308525085,
        -1.0,
        -0.9836065769195557
      ],
      "max": [
        0.8944271802902222,
        1.0,
        0.9836065769195557
      ]
    },
    {
      "bufferView": 3,
      "componentType": 5123,
      "count": 36,
      "type": "SCALAR"
    },
    {
      "bufferView": 4,
      "componentType": 5126,
      "count": 24,
      "type": "VEC3",
      "min": [
        0.4000000059604645,
        1.0750000476837158,
        -0.75
      ],
      "max": [
        1.600000023841858,
        1.625,
        0.75
      ]
    },
    {
      "bufferView": 4,
      "componentType": 5126,
      "count": 24,
      "type": "VEC3",
      "byteOffset": 12,
      "min": [
        -1.0,
        -1.0,
        -0.9838699102401733
      ],
      "max": [
        0.9503971338272095,
        1.0,
        0.9838699102401733
      ]
    },
    {
      "bufferView": 5,
      "componentType": 5123,
      "count": 36,
      "type": "SCALAR"
    },
    {
      "bufferView": 6,
      "componentType": 5126,
      "count": 24,
      "type": "VEC3",
      "min": [
        2.2750000953674316,
        0.44999998807907104,
        -0.5899999737739563
      ],
      "max": [
        2.325000047683716,
        0.7099999785423279,
        0.5899999737739563
      ]
    },
    {
      "bufferView": 6,
      "componentType": 5126,
      "count": 24,
      "type": "VEC3",
      "byteOffset": 12,
      "min": [
        -1.0,
        -1.0,
        -1.0
      ],
      "max": [
        1.0,
        1.0,
        1.0
      ]
    },
    {
      "bufferView": 7,
      "componentType": 5123,
      "count": 36,
      "type": "SCALAR"
    },
    {
      "bufferView": 8,
      "componentType": 5126,
      "count": 24,
      "type": "VEC3",
      "min": [
        2.2699999809265137,
        0.23999999463558197,
        -0.8500000238418579
      ],
      "max": [
        2.3499999046325684,
        0.4000000059604645,
        0.8500000238418579
      ]
    },
    {
      "bufferView": 8,
      "componentType": 5126,
      "count": 24,
      "type": "VEC3",
      "byteOffset": 12,
      "min": [
        -1.0,
        -1.0,
        -1.0
      ],
      "max": [
        1.0,
        1.0,
        1.0
      ]
    },
    {
      "bufferView": 9,
      "componentType": 5123,
      "count": 36,
      "type": "SCALAR"
    },
    {
      "bufferView": 10,
      "componentType": 5126,
      "count": 24,
      "type": "VEC3",
      "min": [
        -2.3499999046325684,
        0.25999999046325684,
        -0.8500000238418579
      ],
      "max": [
        -2.2699999809265137,
        0.41999998688697815,
        0.8500000238418579
      ]
    },
    {
      "bufferView": 10,
      "componentType": 5126,
      "count": 24,
      "type": "VEC3",
      "byteOffset": 12,
      "min": [
        -1.0,
        -1.0,
        -1.0
      ],
      "max": [
        1.0,
        1.0,
        1.0
      ]
    },
    {
      "bufferView": 11,
      "componentType": 5123,
      "count": 36,
      "type": "SCALAR"
    },
    {
      "bufferView": 12,
      "componentType": 5126,
      "count": 24,
      "type": "VEC3",
      "min": [
        -1.875,
        0.2800000011920929,
        -0.9900000095367432
      ],
      "max": [
        1.875,
        0.4000000059604645,
        -0.949999988079071
      ]
    },
    {
      "bufferView": 12,
      "componentType": 5126,
      "count": 24,
      "type": "VEC3",
      "byteOffset": 12,
      "min": [
        -1.0,
        -1.0,
        -1.0
      ],
      "max": [
        1.0,
        1.0,
        1.0
      ]
    },
    {
      "bufferView": 13,
      "componentType": 5123,
      "count": 36,
      "type": "SCALAR"
    },
    {
      "bufferView": 14,
      "componentType": 5126,
      "count": 24,
      "type": "VEC3",
      "min": [
        -1.875,
        0.2800000011920929,
        0.949999988079071
      ],
      "max": [
        1.875,
        0.4000000059604645,
        0.9900000095367432
      ]
    },
    {
      "bufferView": 14,
      "componentType": 5126,
      "count": 24,
      "type": "VEC3",
      "byteOffset": 12,
      "min": [
        -1.0,
        -1.0,
        -1.0
      ],
      "max": [
        1.0,
        1.0,
        1.0
      ]
    },
    {
      "bufferView": 15,
      "componentType": 5123,
      "count": 36,
      "type": "SCALAR"
    },
    {
      "bufferView": 16,
      "componentType": 5126,
      "count": 24,
      "type": "VEC3",
      "min": [
        -1.0099999904632568,
        1.6799999475479126,
        -0.6050000190734863
      ],
      "max": [
        0.4099999964237213,
        1.7200000286102295,
        -0.5550000071525574
      ]
    },
    {
      "bufferView": 16,
      "componentType": 5126,
      "count": 24,
      "type": "VEC3",
      "byteOffset": 12,
      "min": [
        -1.0,
        -1.0,
        -1.0
      ],
      "max": [
        1.0,
        1.0,
        1.0
      ]
    },
    {
      "bufferView": 17,
      "componentType": 5123,
      "count": 36,
      "type": "SCALAR"
    },
    {
      "bufferView": 18,
      "componentType": 5126,
      "count": 24,
      "type": "VEC3",
      "min": [
        -1.0099999904632568,
        1.6799999475479126,
        0.5550000071525574
      ],
      "max": [
        0.4099999964237213,
        1.7200000286102295,
        0.6050000190734863
      ]
    },
    {
      "bufferView": 18,
      "componentType": 5126,
      "count": 24,
      "type": "VEC3",
      "byteOffset": 12,
      "min": [
        -1.0,
        -1.0,
        -1.0
      ],
      "max": [
        1.0,
        1.0,
        1.0
      ]
    },
    {
      "bufferView": 19,
      "componentType": 5123,
      "count": 36,
      "type": "SCALAR"
    },
    {
      "bufferView": 20,
      "componentType": 5126,
      "count": 24,
      "type": "VEC3",
      "min": [
        1.0700000524520874,
        0.8799999952316284,
        -0.7250000238418579
      ],
      "max": [
        1.1299999952316284,
        1.3600000143051147,
        0.7250000238418579
      ]
    },
    {
      "bufferView": 20,
      "componentType": 5126,
      "count": 24,
      "type": "VEC3",
      "byteOffset": 12,
      "min": [
        -1.0,
        -1.0,
        -1.0
      ],
      "max": [
        1.0,
        1.0,
        1.0
      ]
    },
    {
      "bufferView": 21,
      "componentType": 5123,
      "count": 36,
      "type": "SCALAR"
    },
    {
      "bufferView": 22,
      "componentType": 5126,
      "count": 24,
      "type": "VEC3",
      "min": [
        -0.9900000095367432,
        1.2000000476837158,
        -0.7799999713897705
      ],
      "max": [
        0.49000000953674316,
        1.4800000190734863,
        -0.7400000095367432
      ]
    },
    {
      "bufferView": 22,
      "componentType": 5126,
      "count": 24,
      "type": "VEC3",
      "byteOffset": 12,
      "min": [
        -1.0,
        -1.0,
        -1.0
      ],
      "max": [
        1.0,
        1.0,
        1.0
      ]
    },
    {
      "bufferView": 23,
      "componentType": 5123,
      "count": 36,
      "type": "SCALAR"
    },
    {
      "bufferView": 24,
      "componentType": 5126,
      "count": 24,
      "type": "VEC3",
      "min": [
        -0.9900000095367432,
        1.2000000476837158,
        0.7400000095367432
      ],
      "max": [
        0.49000000953674316,
        1.4800000190734863,
        0.7799999713897705
      ]
    },
    {
      "bufferView": 24,
      "componentType": 5126,
      "count": 24,
      "type": "VEC3",
      "byteOffset": 12,
      "min": [
        -1.0,
        -1.0,
        -1.0
      ],
      "max": [
        1.0,
        1.0,
        1.0
      ]
    },
    {
      "bufferView": 25,
      "componentType": 5123,
      "count": 36,
      "type": "SCALAR"
    },
    {
      "bufferView": 26,
      "componentType": 5126,
      "count": 24,
      "type": "VEC3",
      "min": [
        2.2300000190734863,
        0.5299999713897705,
        -0.8100000023841858
      ],
      "max": [
        2.3299999237060547,
        0.7099999785423279,
        -0.38999998569488525
      ]
    },
    {
      "bufferView": 26,
      "componentType": 5126,
      "count": 24,
      "type": "VEC3",
      "byteOffset": 12,
      "min": [
        -1.0,
        -1.0,
        -1.0
      ],
      "max": [
        1.0,
        1.0,
        1.0
      ]
    },
    {
      "bufferView": 27,
      "componentType": 5123,
      "count": 36,
      "type": "SCALAR"
    },
    {
      "bufferView": 28,
      "componentType": 5126,
      "count": 24,
      "type": "VEC3",
      "min": [
        2.2300000190734863,
        0.5299999713897705,
        0.38999998569488525
      ],
      "max": [
        2.3299999237060547,
        0.7099999785423279,
        0.8100000023841858
      ]
    },
    {
      "bufferView": 28,
      "componentType": 5126,
      "count": 24,
      "type": "VEC3",
      "byteOffset": 12,
      "min": [
        -1.0,
        -1.0,
        -1.0
      ],
      "max": [
        1.0,
        1.0,
        1.0
      ]
    },
    {
      "bufferView": 29,
      "componentType": 5123,
      "count": 36,
      "type": "SCALAR"
    },
    {
      "bufferView": 30,
      "componentType": 5126,
      "count": 24,
      "type": "VEC3",
      "min": [
        -2.3299999237060547,
        0.6399999856948853,
        -0.8100000023841858
      ],
      "max": [
        -2.2300000190734863,
        0.800000011920929,
        -0.38999998569488525
      ]
    },
    {
      "bufferView": 30,
      "componentType": 5126,
      "count": 24,
      "type": "VEC3",
      "byteOffset": 12,
      "min": [
        -1.0,
        -1.0,
        -1.0
      ],
      "max": [
        1.0,
        1.0,
        1.0
      ]
    },
    {
      "bufferView": 31,
      "componentType": 5123,
      "count": 36,
      "type": "SCALAR"
    },
    {
      "bufferView": 32,
      "componentType": 5126,
      "count": 24,
      "type": "VEC3",
      "min": [
        -2.3299999237060547,
        0.6399999856948853,
        0.38999998569488525
      ],
      "max": [
        -2.2300000190734863,
        0.800000011920929,
        0.8100000023841858
      ]
    },
    {
      "bufferView": 32,
      "componentType": 5126,
      "count": 24,
      "type": "VEC3",
      "byteOffset": 12,
      "min": [
        -1.0,
        -1.0,
        -1.0
      ],
      "max": [
        1.0,
        1.0,
        1.0
      ]
    },
    {
      "bufferView": 33,
      "componentType": 5123,
      "count": 36,
      "type": "SCALAR"
    },
    {
      "bufferView": 34,
      "componentType": 5126,
      "count": 24,
      "type": "VEC3",
      "min": [
        2.2100000381469727,
        0.5899999737739563,
        -0.8500000238418579
      ],
      "max": [
        2.2899999618530273,
        0.7300000190734863,
        -0.75
      ]
    },
    {
      "bufferView": 34,
      "componentType": 5126,
      "count": 24,
      "type": "VEC3",
      "byteOffset": 12,
      "min": [
        -1.0,
        -1.0,
        -1.0
      ],
      "max": [
        1.0,
        1.0,
        1.0
      ]
    },
    {
      "bufferView": 35,
      "componentType": 5123,
      "count": 36,
      "type": "SCALAR"
    },
    {
      "bufferView": 36,
      "componentType": 5126,
      "count": 24,
      "type": "VEC3",
      "min": [
        2.2100000381469727,
        0.5899999737739563,
        0.75
      ],
      "max": [
        2.2899999618530273,
        0.7300000190734863,
        0.8500000238418579
      ]
    },
    {
      "bufferView": 36,
      "componentType": 5126,
      "count": 24,
      "type": "VEC3",
      "byteOffset": 12,
      "min": [
        -1.0,
        -1.0,
        -1.0
      ],
      "max": [
        1.0,
        1.0,
        1.0
      ]
    },
    {
      "bufferView": 37,
      "componentType": 5123,
      "count": 36,
      "type": "SCALAR"
    },
    {
      "bufferView": 38,
      "componentType": 5126,
      "count": 24,
      "type": "VEC3",
      "min": [
        -2.2899999618530273,
        0.6499999761581421,
        -0.8500000238418579
      ],
      "max": [
        -2.2100000381469727,
        0.7900000214576721,
        -0.75
      ]
    },
    {
      "bufferView": 38,
      "componentType": 5126,
      "count": 24,
      "type": "VEC3",
      "byteOffset": 12,
      "min": [
        -1.0,
        -1.0,
        -1.0
      ],
      "max": [
        1.0,
        1.0,
        1.0
      ]
    },
    {
      "bufferView": 39,
      "componentType": 5123,
      "count": 36,
      "type": "SCALAR"
    },
    {
      "bufferView": 40,
      "componentType": 5126,
      "count": 24,
      "type": "VEC3",
      "min": [
        -2.2899999618530273,
        0.6499999761581421,
        0.75
      ],
      "max": [
        -2.2100000381469727,
        0.7900000214576721,
        0.8500000238418579
      ]
    },
    {
      "bufferView": 40,
      "componentType": 5126,
      "count": 24,
      "type": "VEC3",
      "byteOffset": 12,
      "min": [
        -1.0,
        -1.0,
        -1.0
      ],
      "max": [
        1.0,
        1.0,
        1.0
      ]
    },
    {
      "bufferView": 41,
      "componentType": 5123,
      "count": 36,
      "type": "SCALAR"
    },
    {
      "bufferView": 42,
      "componentType": 5126,
      "count": 30,
      "type": "VEC3",
      "min": [
        -0.3799999952316284,
        -0.37047260999679565,
        -0.14000000059604645
      ],
      "max": [
        0.3799999952316284,
        0.37047260999679565,
        0.14000000059604645
      ]
    },
    {
      "bufferView": 42,
      "componentType": 5126,
      "count": 30,
      "type": "VEC3",
      "byteOffset": 12,
      "min": [
        -1.0,
        -0.9749279022216797,
        -1.0
      ],
      "max": [
        1.0,
        0.9749279022216797,
        1.0
      ]
    },
    {
      "bufferView": 43,
      "componentType": 5123,
      "count": 168,
      "type": "SCALAR"
    },
    {
      "bufferView": 44,
      "componentType": 5126,
      "count": 30,
      "type": "VEC3",
      "min": [
        -0.3799999952316284,
        -0.37047260999679565,
        -0.14000000059604645
      ],
      "max": [
        0.3799999952316284,
        0.37047260999679565,
        0.14000000059604645
      ]
    },
    {
      "bufferView": 44,
      "componentType": 5126,
      "count": 30,
      "type": "VEC3",
      "byteOffset": 12,
      "min": [
        -1.0,
        -0.9749279022216797,
        -1.0
      ],
      "max": [
        1.0,
        0.9749279022216797,
        1.0
      ]
    },
    {
      "bufferView": 45,
      "componentType": 5123,
      "count": 168,
      "type": "SCALAR"
    },
    {
      "bufferView": 46,
      "componentType": 5126,
      "count": 30,
      "type": "VEC3",
      "min": [
        -0.3799999952316284,
        -0.37047260999679565,
        -0.14000000059604645
      ],
      "max": [
        0.3799999952316284,
        0.37047260999679565,
        0.14000000059604645
      ]
    },
    {
      "bufferView": 46,
      "componentType": 5126,
      "count": 30,
      "type": "VEC3",
      "byteOffset": 12,
      "min": [
        -1.0,
        -0.9749279022216797,
        -1.0
      ],
      "max": [
        1.0,
        0.9749279022216797,
        1.0
      ]
    },
    {
      "bufferView": 47,
      "componentType": 5123,
      "count": 168,
      "type": "SCALAR"
    },
    {
      "bufferView": 48,
      "componentType": 5126,
      "count": 30,
      "type": "VEC3",
      "min": [
        -0.3799999952316284,
        -0.37047260999679565,
        -0.14000000059604645
      ],
      "max": [
        0.3799999952316284,
        0.37047260999679565,
        0.14000000059604645
      ]
    },
    {
      "bufferView": 48,
      "componentType": 5126,
      "count": 30,
      "type": "VEC3",
      "byteOffset": 12,
      "min": [
        -1.0,
        -0.9749279022216797,
        -1.0
      ],
      "max": [
        1.0,
        0.9749279022216797,
        1.0
      ]
    },
    {
      "bufferView": 49,
      "componentType": 5123,
      "count": 168,
      "type": "SCALAR"
    }
  ],
  "bufferViews": [
    {
      "buffer": 0,
      "byteOffset": 0,
      "byteLength": 576,
      "byteStride": 24
    },
    {
      "buffer": 0,
      "byteOffset": 576,
      "byteLength": 72
    },
    {
      "buffer": 0,
      "byteOffset": 648,
      "byteLength": 576,
      "byteStride": 24
    },
    {
      "buffer": 0,
      "byteOffset": 1224,
      "byteLength": 72
    },
    {
      "buffer": 0,
      "byteOffset": 1296,
      "byteLength": 576,
      "byteStride": 24
    },
    {
      "buffer": 0,
      "byteOffset": 1872,
      "byteLength": 72
    },
    {
      "buffer": 0,
      "byteOffset": 1944,
      "byteLength": 576,
      "byteStride": 24
    },
    {
      "buffer": 0,
      "byteOffset": 2520,
      "byteLength": 72
    },
    {
      "buffer": 0,
      "byteOffset": 2592,
      "byteLength": 576,
      "byteStride": 24
    },
    {
      "buffer": 0,
      "byteOffset": 3168,
      "byteLength": 72
    },
    {
      "buffer": 0,
      "byteOffset": 3240,
      "byteLength": 576,
      "byteStride": 24
    },
    {
      "buffer": 0,
      "byteOffset": 3816,
      "byteLength": 72
    },
    {
      "buffer": 0,
      "byteOffset": 3888,
      "byteLength": 576,
      "byteStride": 24
    },
    {
      "buffer": 0,
      "byteOffset": 4464,
      "byteLength": 72
    },
    {
      "buffer": 0,
      "byteOffset": 4536,
      "byteLength": 576,
      "byteStride": 24
    },
    {
      "buffer": 0,
      "byteOffset": 5112,
      "byteLength": 72
    },
    {
      "buffer": 0,
      "byteOffset": 5184,
      "byteLength": 576,
      "byteStride": 24
    },
    {
      "buffer": 0,
      "byteOffset": 5760,
      "byteLength": 72
    },
    {
      "buffer": 0,
      "byteOffset": 5832,
      "byteLength": 576,
      "byteStride": 24
    },
    {
      "buffer": 0,
      "byteOffset": 6408,
      "byteLength": 72
    },
    {
      "buffer": 0,
      "byteOffset": 6480,
      "byteLength": 576,
      "byteStride": 24
    },
    {
      "buffer": 0,
      "byteOffset": 7056,
      "byteLength": 72
    },
    {
      "buffer": 0,
      "byteOffset": 7128,
      "byteLength": 576,
      "byteStride": 24
    },
    {
      "buffer": 0,
      "byteOffset": 7704,
      "byteLength": 72
    },
    {
      "buffer": 0,
      "byteOffset": 7776,
      "byteLength": 576,
      "byteStride": 24
    },
    {
      "buffer": 0,
      "byteOffset": 8352,
      "byteLength": 72
    },
    {
      "buffer": 0,
      "byteOffset": 8424,
      "byteLength": 576,
      "byteStride": 24
    },
    {
      "buffer": 0,
      "byteOffset": 9000,
      "byteLength": 72
    },
    {
      "buffer": 0,
      "byteOffset": 9072,
      "byteLength": 576,
      "byteStride": 24
    },
    {
      "buffer": 0,
      "byteOffset": 9648,
      "byteLength": 72
    },
    {
      "buffer": 0,
      "byteOffset": 9720,
      "byteLength": 576,
      "byteStride": 24
    },
    {
      "buffer": 0,
      "byteOffset": 10296,
      "byteLength": 72
    },
    {
      "buffer": 0,
      "byteOffset": 10368,
      "byteLength": 576,
      "byteStride": 24
    },
    {
      "buffer": 0,
      "byteOffset": 10944,
      "byteLength": 72
    },
    {
      "buffer": 0,
      "byteOffset": 11016,
      "byteLength": 576,
      "byteStride": 24
    },
    {
      "buffer": 0,
      "byteOffset": 11592,
      "byteLength": 72
    },
    {
      "buffer": 0,
      "byteOffset": 11664,
      "byteLength": 576,
      "byteStride": 24
    },
    {
      "buffer": 0,
      "byteOffset": 12240,
      "byteLength": 72
    },
    {
      "buffer": 0,
      "byteOffset": 12312,
      "byteLength": 576,
      "byteStride": 24
    },
    {
      "buffer": 0,
      "byteOffset": 12888,
      "byteLength": 72
    },
    {
      "buffer": 0,
      "byteOffset": 12960,
      "byteLength": 576,
      "byteStride": 24
    },
    {
      "buffer": 0,
      "byteOffset": 13536,
      "byteLength": 72
    },
    {
      "buffer": 0,
      "byteOffset": 13608,
      "byteLength": 720,
      "byteStride": 24
    },
    {
      "buffer": 0,
      "byteOffset": 14328,
      "byteLength": 336
    },
    {
      "buffer": 0,
      "byteOffset": 14664,
      "byteLength": 720,
      "byteStride": 24
    },
    {
      "buffer": 0,
      "byteOffset": 15384,
      "byteLength": 336
    },
    {
      "buffer": 0,
      "byteOffset": 15720,
      "byteLength": 720,
      "byteStride": 24
    },
    {
      "buffer": 0,
      "byteOffset": 16440,
      "byteLength": 336
    },
    {
      "buffer": 0,
      "byteOffset": 16776,
      "byteLength": 720,
      "byteStride": 24
    },
    {
      "buffer": 0,
      "byteOffset": 17496,
      "byteLength": 336
    }
  ],
  "buffers": [
    {
      "byteLength": 17832,
      "uri": "data:application/octet-stream;base64,"
    }
  ],
  "materials": [
    {
      "pbrMetallicRoughness": {
        "baseColorFactor": [
          0.16,
          0.2,
          0.17,
          1.0
        ],
        "metallicFactor": 0.3,
        "roughnessFactor": 0.4
      }
    },
    {
      "pbrMetallicRoughness": {
        "baseColorFactor": [
          0.7,
          0.8,
          0.95,
          0.5
        ],
        "metallicFactor": 0.1,
        "roughnessFactor": 0.05
      },
      "alphaMode": "BLEND",
      "doubleSided": true
    },
    {
      "pbrMetallicRoughness": {
        "baseColorFactor": [
          0.08,
          0.08,
          0.08,
          1.0
        ],
        "metallicFactor": 0.0,
        "roughnessFactor": 0.95
      }
    },
    {
      "pbrMetallicRoughness": {
        "baseColorFactor": [
          0.85,
          0.85,
          0.8,
          1.0
        ],
        "metallicFactor": 0.2,
        "roughnessFactor": 0.2
      },
      "emissiveFactor": [
        0.5,
        0.5,
        0.45
      ]
    },
    {
      "pbrMetallicRoughness": {
        "baseColorFactor": [
          0.5,
          0.05,
          0.05,
          1.0
        ],
        "metallicFactor": 0.1,
        "roughnessFactor": 0.35
      },
      "emissiveFactor": [
        0.12,
        0.0,
        0.0
      ]
    },
    {
      "pbrMetallicRoughness": {
        "baseColorFactor": [
          0.85,
          0.5,
          0.05,
          1.0
        ],
        "metallicFactor": 0.1,
        "roughnessFactor": 0.25
      },
      "emissiveFactor": [
        0.35,
        0.18,
        0.0
      ]
    }
  ]
}