{
  "asset": {
    "version": "2.0",
    "generator": "FlowEngine gen_models.py"
  },
  "scene": 0,
  "scenes": [
    {
      "nodes": [
        0,
        1,
        2,
        3,
        4,
        5,
        6,
        7,
        8,
        9,
        10,
        11,
        12,
        13,
        14,
        15,
        16,
        17,
        18,
        19,
        20
      ]
    }
  ],
  "nodes": [
    {
      "name": "cab",
      "mesh": 0
    },
    {
      "name": "cargo",
      "mesh": 1
    },
    {
      "name": "grille",
      "mesh": 2
    },
    {
      "name": "bumper",
      "mesh": 3
    },
    {
      "name": "mirror_L",
      "mesh": 4
    },
    {
      "name": "mirror_R",
      "mesh": 5
    },
    {
      "name": "cargo_rib_1",
      "mesh": 6
    },
    {
      "name": "cargo_rib_2",
      "mesh": 7
    },
    {
      "name": "cargo_rib_3",
      "mesh": 8
    },
    {
      "name": "cargo_rib_4",
      "mesh": 9
    },
    {
      "name": "windshield",
      "mesh": 10
    },
    {
      "name": "headlight_L",
      "mesh": 11
    },
    {
      "name": "headlight_R",
      "mesh": 12
    },
    {
      "name": "brakelight_L",
      "mesh": 13
    },
    {
      "name": "brakelight_R",
      "mesh": 14
    },
    {
      "name": "turnsignal_FL",
      "mesh": 15
    },
    {
      "name": "turnsignal_FR",
      "mesh": 16
    },
    {
      "name": "turnsignal_RL",
      "mesh": 17
    },
    {
      "name": "turnsignal_RR",
      "mesh": 18
    },
    {
      "name": "axle_front",
      "translation": [
        1.5,
        0.5,
        0.0
      ],
      "children": [
        21,
        22
      ]
    },
    {
      "name": "axle_rear",
      "translation": [
        -1.5,
        0.5,
        0.0
      ],
      "children": [
        23,
        24
      ]
    },
    {
      "name": "wheel_FL",
      "translation": [
        0.0,
        0.0,
        -1.1
      ],
      "mesh": 19
    },
    {
      "name": "wheel_FR",
      "translation": [
        0.0,
        0.0,
        1.1
      ],
      "mesh": 20
    },
    {
      "name": "wheel_RL",
      "translation": [
        0.0,
        0.0,
        -1.1
      ],
      "mesh": 21
    },
    {
      "name": "wheel_RR",
      "translation": [
        0.0,
        0.0,
        1.1
      ],
      "mesh": 22
    }
  ],
  "meshes": [
    {
      "primitives": [
        {
          "attributes": {
            "POSITION": 0,
            "NORMAL": 1
          },
          "indices": 2,
          "material": 0
        }
      ],
      "name": "cab"
    },
    {
      "primitives": [
        {
          "attributes": {
            "POSITION": 3,
            "NORMAL": 4
          },
          "indices": 5,
          "material": 0
        }
      ],
      "name": "cargo"
    },
    {
      "primitives": [
        {
          "attributes": {
            "POSITION": 6,
            "NORMAL": 7
          },
          "indices": 8,
          "material": 2
        }
      ],
      "name": "grille"
    },
    {
      "primitives": [
        {
          "attributes": {
            "POSITION": 9,
            "NORMAL": 10
          },
          "indices": 11,
          "material": 2
        }
      ],
      "name": "bumper"
    },
    {
      "primitives": [
        {
          "attributes": {
            "POSITION": 12,
            "NORMAL": 13
          },
          "indices": 14,
          "material": 2
        }
      ],
      "name": "mirror_L"
    },
    {
      "primitives": [
        {
          "attributes": {
            "POSITION": 15,
            "NORMAL": 16
          },
          "indices": 17,
          "material": 2
        }
      ],
      "name": "mirror_R"
    },
    {
      "primitives": [
        {
          "attributes": {
            "POSITION": 18,
            "NORMAL": 19
          },
          "indices": 20,
          "material": 2
        }
      ],
      "name": "cargo_rib_1"
    },
    {
      "primitives": [
        {
          "attributes": {
            "POSITION": 21,
            "NORMAL": 22
          },
          "indices": 23,
          "material": 2
        }
      ],
      "name": "cargo_rib_2"
    },
    {
      "primitives": [
        {
          "attributes": {
            "POSITION": 24,
            "NORMAL": 25
          },
          "indices": 26,
          "material": 2
        }
      ],
      "name": "cargo_rib_3"
    },
    {
      "primitives": [
        {
          "attributes": {
            "POSITION": 27,
            "NORMAL": 28
          },
          "indices": 29,
          "material": 2
        }
      ],
      "name": "cargo_rib_4"
    },
    {
      "primitives": [
        {
          "attributes": {
            "POSITION": 30,
            "NORMAL": 31
          },
          "indices": 32,
          "material": 1
        }
      ],
      "name": "windshield"
    },
    {
      "primitives": [
        {
          "attributes": {
            "POSITION": 33,
            "NORMAL": 34
          },
          "indices": 35,
          "material": 3
        }
      ],
      "name": "headlight_L"
    },
    {
      "primitives": [
        {
          "attributes": {
            "POSITION": 36,
            "NORMAL": 37
          },
          "indices": 38,
          "material": 3
        }
      ],
      "name": "headlight_R"
    },
    {
      "primitives": [
        {
          "attributes": {
            "POSITION": 39,
            "NORMAL": 40
          },
          "indices": 41,
          "material": 4
        }
      ],
      "name": "brakelight_L"
    },
    {
      "primitives": [
        {
          "attributes": {
            "POSITION": 42,
            "NORMAL": 43
          },
          "indices": 44,
          "material": 4
        }
      ],
      "name": "brakelight_R"
    },
    {
      "primitives": [
        {
          "attributes": {
            "POSITION": 45,
            "NORMAL": 46
          },
          "indices": 47,
          "material": 5
        }
      ],
      "name": "turnsignal_FL"
    },
    {
      "primitives": [
        {
          "attributes": {
            "POSITION": 48,
            "NORMAL": 49
          },
          "indices": 50,
          "material": 5
        }
      ],
      "name": "turnsignal_FR"
    },
    {
      "primitives": [
        {
          "attributes": {
            "POSITION": 51,
            "NORMAL": 52
          },
          "indices": 53,
          "material": 5
        }
      ],
      "name": "turnsignal_RL"
    },
    {
      "primitives": [
        {
          "attributes": {
            "POSITION": 54,
            "NORMAL": 55
          },
          "indices": 56,
          "material": 5
        }
      ],
      "name": "turnsignal_RR"
    },
    {
      "primitives": [
        {
          "attributes": {
            "POSITION": 57,
            "NORMAL": 58
          },
          "indices": 59,
          "material": 2
        }
      ],
      "name": "wheel_FL"
    },
    {
      "primitives": [
        {
          "attributes": {
            "POSITION": 60,
            "NORMAL": 61
          },
          "indices": 62,
          "material": 2
        }
      ],
      "name": "wheel_FR"
    },
    {
      "primitives": [
        {
          "attributes": {
            "POSITION": 63,
            "NORMAL": 64
          },
          "indices": 65,
          "material": 2
        }
      ],
      "name": "wheel_RL"
    },
    {
      "primitives": [
        {
          "attributes": {
            "POSITION": 66,
            "NORMAL": 67
          },
          "indices": 68,
          "material": 2
        }
      ],
      "name": "wheel_RR"
    }
  ],
  "accessors": [
    {
      "bufferView": 0,
      "componentType": 5126,
      "count": 24,
      "type": "VEC3",
      "min": [
        0.0,
        0.10000000149011612,
        -1.2000000476837158
      ],
      "max": [
        2.0,
        1.0,
        1.2000000476837158
      ]
    },
    {
      "bufferView": 0,
      "componentType": 5126,
      "count": 24,
      "type": "VEC3",
      "byteOffset": 12,
      "min": [
        -1.0,
        -1.0,
        -1.0
      ],
      "max": [
        1.0,
        1.0,
        1.0
      ]
    },
    {
      "bufferView": 1,
      "componentType": 5123,
      "count": 36,
      "type": "SCALAR"
    },
    {
      "bufferView": 2,
      "componentType": 5126,
      "count": 24,
      "type": "VEC3",
      "min": [
        -5.25,
        0.6000000238418579,
        -1.25
      ],
      "max": [
        0.25,
        2.5999999046325684,
        1.25
      ]
    },
    {
      "bufferView": 2,
      "componentType": 5126,
      "count": 24,
      "type": "VEC3",
      "byteOffset": 12,
      "min": [
        -1.0,
        -1.0,
        -1.0
      ],
      "max": [
        1.0,
        1.0,
        1.0
      ]
    },
    {
      "bufferView": 3,
      "componentType": 5123,
      "count": 36,
      "type": "SCALAR"
    },
    {
      "bufferView": 4,
      "componentType": 5126,
      "count": 24,
      "type": "VEC3",
      "min": [
        1.9950000047683716,
        0.5699999928474426,
        -0.675000011920929
      ],
      "max": [
        2.0450000762939453,
        0.8700000047683716,
        0.675000011920929
      ]
    },
    {
      "bufferView": 4,
      "componentType": 5126,
      "count": 24,
      "type": "VEC3",
      "byteOffset": 12,
      "min": [
        -1.0,
        -1.0,
        -1.0
      ],
      "max": [
        1.0,
        1.0,
        1.0
      ]
    },
    {
      "bufferView": 5,
      "componentType": 5123,
      "count": 36,
      "type": "SCALAR"
    },
    {
      "bufferView": 6,
      "componentType": 5126,
      "count": 24,
      "type": "VEC3",
      "min": [
        1.9900000095367432,
        0.27000001072883606,
        -1.1749999523162842
      ],
      "max": [
        2.0899999141693115,
        0.4300000071525574,
        1.1749999523162842
      ]
    },
    {
      "bufferView": 6,
      "componentType": 5126,
      "count": 24,
      "type": "VEC3",
      "byteOffset": 12,
      "min": [
        -1.0,
        -1.0,
        -1.0
      ],
      "max": [
        1.0,
        1.0,
        1.0
      ]
    },
    {
      "bufferView": 7,
      "componentType": 5123,
      "count": 36,
      "type": "SCALAR"
    },
    {
      "bufferView": 8,
      "componentType": 5126,
      "count": 24,
      "type": "VEC3",
      "min": [
        1.059999942779541,
        0.9700000286102295,
        -1.350000023841858
      ],
      "max": [
        1.2400000095367432,
        1.1299999952316284,
        -1.25
      ]
    },
    {
      "bufferView": 8,
      "componentType": 5126,
      "count": 24,
      "type": "VEC3",
      "byteOffset": 12,
      "min": [
        -1.0,
        -1.0,
        -1.0
      ],
      "max": [
        1.0,
        1.0,
        1.0
      ]
    },
    {
      "bufferView": 9,
      "componentType": 5123,
      "count": 36,
      "type": "SCALAR"
    },
    {
      "bufferView": 10,
      "componentType": 5126,
      "count": 24,
      "type": "VEC3",
      "min": [
        1.059999942779541,
        0.9700000286102295,
        1.25
      ],
      "max": [
        1.2400000095367432,
        1.1299999952316284,
        1.350000023841858
      ]
    },
    {
      "bufferView": 10,
      "componentType": 5126,
      "count": 24,
      "type": "VEC3",
      "byteOffset": 12,
      "min": [
        -1.0,
        -1.0,
        -1.0
      ],
      "max": [
        1.0,
        1.0,
        1.0
      ]
    },
    {
      "bufferView": 11,
      "componentType": 5123,
      "count": 36,
      "type": "SCALAR"
    },
    {
      "bufferView": 12,
      "componentType": 5126,
      "count": 24,
      "type": "VEC3",
      "min": [
        -1.4299999475479126,
        0.7400000095367432,
        -1.284999966621399
      ],
      "max": [
        -1.3700000047683716,
        2.4600000381469727,
        -1.2549999952316284
      ]
    },
    {
      "bufferView": 12,
      "componentType": 5126,
      "count": 24,
      "type": "VEC3",
      "byteOffset": 12,
      "min": [
        -1.0,
        -1.0,
        -1.0
      ],
      "max": [
        1.0,
        1.0,
        1.0
      ]
    },
    {
      "bufferView": 13,
      "componentType": 5123,
      "count": 36,
      "type": "SCALAR"
    },
    {
      "bufferView": 14,
      "componentType": 5126,
      "count": 24,
      "type": "VEC3",
      "min": [
        -3.2300000190734863,
        0.7400000095367432,
        -1.284999966621399
      ],
      "max": [
        -3.1700000762939453,
        2.4600000381469727,
        -1.2549999952316284
      ]
    },
    {
      "bufferView": 14,
      "componentType": 5126,
      "count": 24,
      "type": "VEC3",
      "byteOffset": 12,
      "min": [
        -1.0,
        -1.0,
        -1.0
      ],
      "max": [
        1.0,
        1.0,
        1.0
      ]
    },
    {
      "bufferView": 15,
      "componentType": 5123,
      "count": 36,
      "type": "SCALAR"
    },
    {
      "bufferView": 16,
      "componentType": 5126,
      "count": 24,
      "type": "VEC3",
      "min": [
        -1.4299999475479126,
        0.7400000095367432,
        1.2549999952316284
      ],
      "max": [
        -1.3700000047683716,
        2.4600000381469727,
        1.284999966621399
      ]
    },
    {
      "bufferView": 16,
      "componentType": 5126,
      "count": 24,
      "type": "VEC3",
      "byteOffset": 12,
      "min": [
        -1.0,
        -1.0,
        -1.0
      ],
      "max": [
        1.0,
        1.0,
        1.0
      ]
    },
    {
      "bufferView": 17,
      "componentType": 5123,
      "count": 36,
      "type": "SCALAR"
    },
    {
      "bufferView": 18,
      "componentType": 5126,
      "count": 24,
      "type": "VEC3",
      "min": [
        -3.2300000190734863,
        0.7400000095367432,
        1.2549999952316284
      ],
      "max": [
        -3.1700000762939453,
        2.4600000381469727,
        1.284999966621399
      ]
    },
    {
      "bufferView": 18,
      "componentType": 5126,
      "count": 24,
      "type": "VEC3",
      "byteOffset": 12,
      "min": [
        -1.0,
        -1.0,
        -1.0
      ],
      "max": [
        1.0,
        1.0,
        1.0
      ]
    },
    {
      "bufferView": 19,
      "componentType": 5123,
      "count": 36,
      "type": "SCALAR"
    },
    {
      "bufferView": 20,
      "componentType": 5126,
      "count": 24,
      "type": "VEC3",
      "min": [
        0.46000000834465027,
        0.6499999761581421,
        -0.800000011920929
      ],
      "max": [
        0.5400000214576721,
        1.25,
        0.800000011920929
      ]
    },
    {
      "bufferView": 20,
      "componentType": 5126,
      "count": 24,
      "type": "VEC3",
      "byteOffset": 12,
      "min": [
        -1.0,
        -1.0,
        -1.0
      ],
      "max": [
        1.0,
        1.0,
        1.0
      ]
    },
    {
      "bufferView": 21,
      "componentType": 5123,
      "count": 36,
      "type": "SCALAR"
    },
    {
      "bufferView": 22,
      "componentType": 5126,
      "count": 24,
      "type": "VEC3",
      "min": [
        1.899999976158142,
        0.46000000834465027,
        -0.8999999761581421
      ],
      "max": [
        2.0,
        0.6399999856948853,
        -0.5
      ]
    },
    {
      "bufferView": 22,
      "componentType": 5126,
      "count": 24,
      "type": "VEC3",
      "byteOffset": 12,
      "min": [
        -1.0,
        -1.0,
        -1.0
      ],
      "max": [
        1.0,
        1.0,
        1.0
      ]
    },
    {
      "bufferView": 23,
      "componentType": 5123,
      "count": 36,
      "type": "SCALAR"
    },
    {
      "bufferView": 24,
      "componentType": 5126,
      "count": 24,
      "type": "VEC3",
      "min": [
        1.899999976158142,
        0.46000000834465027,
        0.5
      ],
      "max": [
        2.0,
        0.6399999856948853,
        0.8999999761581421
      ]
    },
    {
      "bufferView": 24,
      "componentType": 5126,
      "count": 24,
      "type": "VEC3",
      "byteOffset": 12,
      "min": [
        -1.0,
        -1.0,
        -1.0
      ],
      "max": [
        1.0,
        1.0,
        1.0
      ]
    },
    {
      "bufferView": 25,
      "componentType": 5123,
      "count": 36,
      "type": "SCALAR"
    },
    {
      "bufferView": 26,
      "componentType": 5126,
      "count": 24,
      "type": "VEC3",
      "min": [
        -5.25,
        0.8100000023841858,
        -0.8999999761581421
      ],
      "max": [
        -5.150000095367432,
        0.9900000095367432,
        -0.5
      ]
    },
    {
      "bufferView": 26,
      "componentType": 5126,
      "count": 24,
      "type": "VEC3",
      "byteOffset": 12,
      "min": [
        -1.0,
        -1.0,
        -1.0
      ],
      "max": [
        1.0,
        1.0,
        1.0
      ]
    },
    {
      "bufferView": 27,
      "componentType": 5123,
      "count": 36,
      "type": "SCALAR"
    },
    {
      "bufferView": 28,
      "componentType": 5126,
      "count": 24,
      "type": "VEC3",
      "min": [
        -5.25,
        0.8100000023841858,
        0.5
      ],
      "max": [
        -5.150000095367432,
        0.9900000095367432,
        0.8999999761581421
      ]
    },
    {
      "bufferView": 28,
      "componentType": 5126,
      "count": 24,
      "type": "VEC3",
      "byteOffset": 12,
      "min": [
        -1.0,
        -1.0,
        -1.0
      ],
      "max": [
        1.0,
        1.0,
        1.0
      ]
    },
    {
      "bufferView": 29,
      "componentType": 5123,
      "count": 36,
      "type": "SCALAR"
    },
    {
      "bufferView": 30,
      "componentType": 5126,
      "count": 24,
      "type": "VEC3",
      "min": [
        1.909999966621399,
        0.47999998927116394,
        -1.0
      ],
      "max": [
        1.9900000095367432,
        0.6200000047683716,
        -0.8999999761581421
      ]
    },
    {
      "bufferView": 30,
      "componentType": 5126,
      "count": 24,
      "type": "VEC3",
      "byteOffset": 12,
      "min": [
        -1.0,
        -1.0,
        -1.0
      ],
      "max": [
        1.0,
        1.0,
        1.0
      ]
    },
    {
      "bufferView": 31,
      "componentType": 5123,
      "count": 36,
      "type": "SCALAR"
    },
    {
      "bufferView": 32,
      "componentType": 5126,
      "count": 24,
      "type": "VEC3",
      "min": [
        1.909999966621399,
        0.47999998927116394,
        0.8999999761581421
      ],
      "max": [
        1.9900000095367432,
        0.6200000047683716,
        1.0
      ]
    },
    {
      "bufferView": 32,
      "componentType": 5126,
      "count": 24,
      "type": "VEC3",
      "byteOffset": 12,
      "min": [
        -1.0,
        -1.0,
        -1.0
      ],
      "max": [
        1.0,
        1.0,
        1.0
      ]
    },
    {
      "bufferView": 33,
      "componentType": 5123,
      "count": 36,
      "type": "SCALAR"
    },
    {
      "bufferView": 34,
      "componentType": 5126,
      "count": 24,
      "type": "VEC3",
      "min": [
        -5.239999771118164,
        0.8299999833106995,
        -1.0
      ],
      "max": [
        -5.159999847412109,
        0.9700000286102295,
        -0.8999999761581421
      ]
    },
    {
      "bufferView": 34,
      "componentType": 5126,
      "count": 24,
      "type": "VEC3",
      "byteOffset": 12,
      "min": [
        -1.0,
        -1.0,
        -1.0
      ],
      "max": [
        1.0,
        1.0,
        1.0
      ]
    },
    {
      "bufferView": 35,
      "componentType": 5123,
      "count": 36,
      "type": "SCALAR"
    },
    {
      "bufferView": 36,
      "componentType": 5126,
      "count": 24,
      "type": "VEC3",
      "min": [
        -5.239999771118164,
        0.8299999833106995,
        0.8999999761581421
      ],
      "max": [
        -5.159999847412109,
        0.9700000286102295,
        1.0
      ]
    },
    {
      "bufferView": 36,
      "componentType": 5126,
      "count": 24,
      "type": "VEC3",
      "byteOffset": 12,
      "min": [
        -1.0,
        -1.0,
        -1.0
      ],
      "max": [
        1.0,
        1.0,
        1.0
      ]
    },
    {
      "bufferView": 37,
      "componentType": 5123,
      "count": 36,
      "type": "SCALAR"
    },
    {
      "bufferView": 38,
      "componentType": 5126,
      "count": 30,
      "type": "VEC3",
      "min": [
        -0.5,
        -0.48746395111083984,
        -0.20000000298023224
      ],
      "max": [
        0.5,
        0.48746395111083984,
        0.20000000298023224
      ]
    },
    {
      "bufferView": 38,
      "componentType": 5126,
      "count": 30,
      "type": "VEC3",
      "byteOffset": 12,
      "min": [
        -1.0,
        -0.9749279022216797,
        -1.0
      ],
      "max": [
        1.0,
        0.9749279022216797,
        1.0
      ]
    },
    {
      "bufferView": 39,
      "componentType": 5123,
      "count": 168,
      "type": "SCALAR"
    },
    {
      "bufferView": 40,
      "componentType": 5126,
      "count": 30,
      "type": "VEC3",
      "min": [
        -0.5,
        -0.48746395111083984,
        -0.20000000298023224
      ],
      "max": [
        0.5,
        0.48746395111083984,
        0.20000000298023224
      ]
    },
    {
      "bufferView": 40,
      "componentType": 5126,
      "count": 30,
      "type": "VEC3",
      "byteOffset": 12,
      "min": [
        -1.0,
        -0.9749279022216797,
        -1.0
      ],
      "max": [
        1.0,
        0.9749279022216797,
        1.0
      ]
    },
    {
      "bufferView": 41,
      "componentType": 5123,
      "count": 168,
      "type": "SCALAR"
    },
    {
      "bufferView": 42,
      "componentType": 5126,
      "count": 30,
      "type": "VEC3",
      "min": [
        -0.5,
        -0.48746395111083984,
        -0.20000000298023224
      ],
      "max": [
        0.5,
        0.48746395111083984,
        0.20000000298023224
      ]
    },
    {
      "bufferView": 42,
      "componentType": 5126,
      "count": 30,
      "type": "VEC3",
      "byteOffset": 12,
      "min": [
        -1.0,
        -0.9749279022216797,
        -1.0
      ],
      "max": [
        1.0,
        0.9749279022216797,
        1.0
      ]
    },
    {
      "bufferView": 43,
      "componentType": 5123,
      "count": 168,
      "type": "SCALAR"
    },
    {
      "bufferView": 44,
      "componentType": 5126,
      "count": 30,
      "type": "VEC3",
      "min": [
        -0.5,
        -0.48746395111083984,
        -0.20000000298023224
      ],
      "max": [
        0.5,
        0.48746395111083984,
        0.20000000298023224
      ]
    },
    {
      "bufferView": 44,
      "componentType": 5126,
      "count": 30,
      "type": "VEC3",
      "byteOffset": 12,
      "min": [
        -1.0,
        -0.9749279022216797,
        -1.0
      ],
      "max": [
        1.0,
        0.9749279022216797,
        1.0
      ]
    },
    {
      "bufferView": 45,
      "componentType": 5123,
      "count": 168,
      "type": "SCALAR"
    }
  ],
  "bufferViews": [
    {
      "buffer": 0,
      "byteOffset": 0,
      "byteLength": 576,
      "byteStride": 24
    },
    {
      "buffer": 0,
      "byteOffset": 576,
      "byteLength": 72
    },
    {
      "buffer": 0,
      "byteOffset": 648,
      "byteLength": 576,
      "byteStride": 24
    },
    {
      "buffer": 0,
      "byteOffset": 1224,
      "byteLength": 72
    },
    {
      "buffer": 0,
      "byteOffset": 1296,
      "byteLength": 576,
      "byteStride": 24
    },
    {
      "buffer": 0,
      "byteOffset": 1872,
      "byteLength": 72
    },
    {
      "buffer": 0,
      "byteOffset": 1944,
      "byteLength": 576,
      "byteStride": 24
    },
    {
      "buffer": 0,
      "byteOffset": 2520,
      "byteLength": 72
    },
    {
      "buffer": 0,
      "byteOffset": 2592,
      "byteLength": 576,
      "byteStride": 24
    },
    {
      "buffer": 0,
      "byteOffset": 3168,
      "byteLength": 72
    },
    {
      "buffer": 0,
      "byteOffset": 3240,
      "byteLength": 576,
      "byteStride": 24
    },
    {
      "buffer": 0,
      "byteOffset": 3816,
      "byteLength": 72
    },
    {
      "buffer": 0,
      "byteOffset": 3888,
      "byteLength": 576,
      "byteStride": 24
    },
    {
      "buffer": 0,
      "byteOffset": 4464,
      "byteLength": 72
    },
    {
      "buffer": 0,
      "byteOffset": 4536,
      "byteLength": 576,
      "byteStride": 24
    },
    {
      "buffer": 0,
      "byteOffset": 5112,
      "byteLength": 72
    },
    {
      "buffer": 0,
      "byteOffset": 5184,
      "byteLength": 576,
      "byteStride": 24
    },
    {
      "buffer": 0,
      "byteOffset": 5760,
      "byteLength": 72
    },
    {
      "buffer": 0,
      "byteOffset": 5832,
      "byteLength": 576,
      "byteStride": 24
    },
    {
      "buffer": 0,
      "byteOffset": 6408,
      "byteLength": 72
    },
    {
      "buffer": 0,
      "byteOffset": 6480,
      "byteLength": 576,
      "byteStride": 24
    },
    {
      "buffer": 0,
      "byteOffset": 7056,
      "byteLength": 72
    },
    {
      "buffer": 0,
      "byteOffset": 7128,
      "byteLength": 576,
      "byteStride": 24
    },
    {
      "buffer": 0,
      "byteOffset": 7704,
      "byteLength": 72
    },
    {
      "buffer": 0,
      "byteOffset": 7776,
      "byteLength": 576,
      "byteStride": 24
    },
    {
      "buffer": 0,
      "byteOffset": 8352,
      "byteLength": 72
    },
    {
      "buffer": 0,
      "byteOffset": 8424,
      "byteLength": 576,
      "byteStride": 24
    },
    {
      "buffer": 0,
      "byteOffset": 9000,
      "byteLength": 72
    },
    {
      "buffer": 0,
      "byteOffset": 9072,
      "byteLength": 576,
      "byteStride": 24
    },
    {
      "buffer": 0,
      "byteOffset": 9648,
      "byteLength": 72
    },
    {
      "buffer": 0,
      "byteOffset": 9720,
      "byteLength": 576,
      "byteStride": 24
    },
    {
      "buffer": 0,
      "byteOffset": 10296,
      "byteLength": 72
    },
    {
      "buffer": 0,
      "byteOffset": 10368,
      "byteLength": 576,
      "byteStride": 24
    },
    {
      "buffer": 0,
      "byteOffset": 10944,
      "byteLength": 72
    },
    {
      "buffer": 0,
      "byteOffset": 11016,
      "byteLength": 576,
      "byteStride": 24
    },
    {
      "buffer": 0,
      "byteOffset": 11592,
      "byteLength": 72
    },
    {
      "buffer": 0,
      "byteOffset": 11664,
      "byteLength": 576,
      "byteStride": 24
    },
    {
      "buffer": 0,
      "byteOffset": 12240,
      "byteLength": 72
    },
    {
      "buffer": 0,
      "byteOffset": 12312,
      "byteLength": 720,
      "byteStride": 24
    },
    {
      "buffer": 0,
      "byteOffset": 13032,
      "byteLength": 336
    },
    {
      "buffer": 0,
      "byteOffset": 13368,
      "byteLength": 720,
      "byteStride": 24
    },
    {
      "buffer": 0,
      "byteOffset": 14088,
      "byteLength": 336
    },
    {
      "buffer": 0,
      "byteOffset": 14424,
      "byteLength": 720,
      "byteStride": 24
    },
    {
      "buffer": 0,
      "byteOffset": 15144,
      "byteLength": 336
    },
    {
      "buffer": 0,
      "byteOffset": 15480,
      "byteLength": 720,
      "byteStride": 24
    },
    {
      "buffer": 0,
      "byteOffset": 16200,
      "byteLength": 336
    }
  ],
  "buffers": [
    {
      "byteLength": 16536,
      "uri": "data:application/octet-stream;base64,"
    }
  ],
  "materials": [
    {
      "pbrMetallicRoughness": {
        "baseColorFactor": [
          0.85,
          0.2,
          0.15,
          1.0
        ],
        "metallicFactor": 0.25,
        "roughnessFactor": 0.58
      }
    },
    {
      "pbrMetallicRoughness": {
        "baseColorFactor": [
          0.7,
          0.8,
          0.95,
          0.5
        ],
        "metallicFactor": 0.1,
        "roughnessFactor": 0.05
      },
      "alphaMode": "BLEND",
      "doubleSided": true
    },
    {
      "pbrMetallicRoughness": {
        "baseColorFactor": [
          0.08,
          0.08,
          0.08,
          1.0
        ],
        "metallicFactor": 0.0,
        "roughnessFactor": 0.95
      }
    },
    {
      "pbrMetallicRoughness": {
        "baseColorFactor": [
          0.85,
          0.85,
          0.8,
          1.0
        ],
        "metallicFactor": 0.2,
        "roughnessFactor": 0.2
      },
      "emissiveFactor": [
        0.5,
        0.5,
        0.45
      ]
    },
    {
      "pbrMetallicRoughness": {
        "baseColorFactor": [
          0.5,
          0.05,
          0.05,
          1.0
        ],
        "metallicFactor": 0.1,
        "roughnessFactor": 0.35
      },
      "emissiveFactor": [
        0.12,
        0.0,
        0.0
      ]
    },
    {
      "pbrMetallicRoughness": {
        "baseColorFactor": [
          0.85,
          0.5,
          0.05,
          1.0
        ],
        "metallicFactor": 0.1,
        "roughnessFactor": 0.25
      },
      "emissiveFactor": [
        0.35,
        0.18,
        0.0
      ]
    }
  ]
}